<svg xmlns="http://www.w3.org/2000/svg" width="80" height="47.929" viewBox="0 0 80 47.929">
  <g id="Group_4343" data-name="Group 4343" transform="translate(-110 -15.305)">
    <g id="Group_4341" data-name="Group 4341" transform="translate(1 2.305)">
      <path id="Path_9879" data-name="Path 9879" d="M871.746,497.828h3.912q-.083,1.071-.173,3.032t-.109,2.965c-.507.109-.924.188-1.259.237s-.729.094-1.195.132-.883.06-1.247.06a8.9,8.9,0,0,1-1.762-.173,5.158,5.158,0,0,1-1.544-.552,3.428,3.428,0,0,1-1.127-1.041,5.1,5.1,0,0,1-.7-1.556,6.96,6.96,0,0,1-.248-1.879,6.558,6.558,0,0,1,.669-2.946,5.209,5.209,0,0,1,1.913-2.153,5.941,5.941,0,0,1,3.231-.793,13.9,13.9,0,0,1,3.2.413c0,.751.026,1.608.086,2.54-.319-.124-.575-.222-.77-.286a7.054,7.054,0,0,0-.684-.18c-.263-.053-.511-.094-.751-.12a5.706,5.706,0,0,0-.628-.041,3.78,3.78,0,0,0-1.372.248,2.84,2.84,0,0,0-1.127.751,3.292,3.292,0,0,0-.7,1.221,4.841,4.841,0,0,0-.233,1.5,3.725,3.725,0,0,0,.263,1.432,1.938,1.938,0,0,0,.838.958,2.551,2.551,0,0,0,1.281.327,4.639,4.639,0,0,0,1.285-.2l.075-1.695-.507-.023h-.7l.049-.962v-.451C871.708,498.4,871.746,498.166,871.746,497.828Z" transform="translate(-750.654 -468.644)" fill="#ff7c7c"/>
      <path id="Path_9880" data-name="Path 9880" d="M899.9,493.22a6.145,6.145,0,0,1,2.029.334,4.419,4.419,0,0,1,1.71,1.075,4.779,4.779,0,0,1,1.093,1.7,6.281,6.281,0,0,1,.376,2.213,7.1,7.1,0,0,1-.425,2.412,5.1,5.1,0,0,1-1.154,1.879,4.508,4.508,0,0,1-1.792,1.127,6.7,6.7,0,0,1-2.172.376,6.55,6.55,0,0,1-2.134-.349,4.384,4.384,0,0,1-1.777-1.127,4.565,4.565,0,0,1-1.075-1.732,6.709,6.709,0,0,1-.316-2.119,6.427,6.427,0,0,1,.669-3.006,4.772,4.772,0,0,1,1.988-2.022A6.012,6.012,0,0,1,899.9,493.22Zm-.12,2.352a2.3,2.3,0,0,0-1.372.44,2.8,2.8,0,0,0-.943,1.229,4.275,4.275,0,0,0-.331,1.683,3.76,3.76,0,0,0,.3,1.5,2.344,2.344,0,0,0,.913,1.075,2.413,2.413,0,0,0,1.3.376,2.254,2.254,0,0,0,1.341-.432,2.72,2.72,0,0,0,.932-1.217,4.4,4.4,0,0,0,.319-1.646,3.981,3.981,0,0,0-.3-1.544,2.408,2.408,0,0,0-.872-1.1,2.224,2.224,0,0,0-1.274-.368Z" transform="translate(-768.31 -468.684)" fill="#ff7c7c"/>
      <path id="Path_9881" data-name="Path 9881" d="M934.867,506.016c-.022.21-.071.594-.154,1.15l-.165,1.251a7.279,7.279,0,0,1-2.021.308,4.132,4.132,0,0,1-1.263-.165,2.739,2.739,0,0,1-1.15-.714,3.168,3.168,0,0,1-.751-1.255,6.014,6.014,0,0,1-.293-1.905,6.2,6.2,0,0,1,.271-1.879,3.758,3.758,0,0,1,.793-1.462,2.717,2.717,0,0,1,1.2-.789,5.037,5.037,0,0,1,1.454-.207,7.991,7.991,0,0,1,.943.053,8.229,8.229,0,0,1,1.176.248v.18c0,.188.023.376.034.575s.022.5.045.924l.045.7a4.4,4.4,0,0,0-1.672-.376,1.743,1.743,0,0,0-.913.241,1.431,1.431,0,0,0-.575.691,2.73,2.73,0,0,0-.184,1.045,2.69,2.69,0,0,0,.173,1.007,1.2,1.2,0,0,0,.567.594,1.665,1.665,0,0,0,.812.2,3.359,3.359,0,0,0,.53-.056,4.956,4.956,0,0,0,.537-.143,4.2,4.2,0,0,0,.563-.214Z" transform="translate(-790.162 -473.12)" fill="#499cfd"/>
      <path id="Path_9882" data-name="Path 9882" d="M947.65,504.309c.068-.774.117-1.413.143-1.913q.083-1.574.177-3.652.049-1.375.075-2.63t0-2.461h1.364c.473,0,.921,0,1.345-.023l-.128,1.879c-.023.316-.053.947-.1,1.9a5.763,5.763,0,0,1,.353-.488,2.58,2.58,0,0,1,.308-.3,2.068,2.068,0,0,1,.752-.4,3.149,3.149,0,0,1,.5-.113,4.08,4.08,0,0,1,1.65.1,2.044,2.044,0,0,1,.9.515,1.968,1.968,0,0,1,.5.827,3.52,3.52,0,0,1,.135,1c0,.143,0,.327,0,.56a7.177,7.177,0,0,1-.041.879l-.132,2.63c0,.331-.022.6-.022.819v.815h-1.315c-.421,0-.947,0-1.432.023.071-.7.135-1.5.184-2.4s.079-1.578.075-2.022a1.57,1.57,0,0,0-.263-1.03.861.861,0,0,0-.691-.293,1.228,1.228,0,0,0-.68.192,1.383,1.383,0,0,0-.458.507,2.883,2.883,0,0,0-.282.838,15.253,15.253,0,0,0-.2,1.965q-.034.714-.064,2.255h-1.247Z" transform="translate(-801.845 -468.941)" fill="#499cfd"/>
      <path id="Path_9883" data-name="Path 9883" d="M978.427,505.878c-.056.312-.162,1.071-.315,2.255a12.124,12.124,0,0,1-1.285.244,9.84,9.84,0,0,1-1.056.064,7.563,7.563,0,0,1-1.447-.12,3.093,3.093,0,0,1-1.127-.451,2.915,2.915,0,0,1-.8-.815,3.72,3.72,0,0,1-.5-1.153,5.668,5.668,0,0,1-.173-1.383,5.834,5.834,0,0,1,.327-1.958,3.969,3.969,0,0,1,.857-1.5,3.036,3.036,0,0,1,1.221-.774,4.662,4.662,0,0,1,1.417-.233,4.885,4.885,0,0,1,1.435.2,2.555,2.555,0,0,1,1.161.714,3.006,3.006,0,0,1,.68,1.161,4.652,4.652,0,0,1,.21,1.4,6.571,6.571,0,0,1-.083,1l-4.622.03v.225a1.473,1.473,0,0,0,.507,1.266,1.973,1.973,0,0,0,1.244.376,4.922,4.922,0,0,0,.992-.128A11.778,11.778,0,0,0,978.427,505.878Zm-4.066-2.5h2.176v-.229a1.771,1.771,0,0,0-.124-.7.835.835,0,0,0-.353-.417.977.977,0,0,0-.511-.132,1.037,1.037,0,0,0-.376.075,1.066,1.066,0,0,0-.331.222,1.279,1.279,0,0,0-.244.334,1.538,1.538,0,0,0-.147.376A4,4,0,0,0,974.361,503.375Z" transform="translate(-816.964 -472.934)" fill="#499cfd"/>
      <path id="Path_9884" data-name="Path 9884" d="M993.55,508.173l.165-3.757.094-2.946V500.2h1.281c.417,0,.823,0,1.221-.023l-.041,1.037a5.51,5.51,0,0,1,.342-.481,2.221,2.221,0,0,1,.346-.323,2,2,0,0,1,.421-.244,2.81,2.81,0,0,1,1.056-.2,2.711,2.711,0,0,1,.62.064,2.191,2.191,0,0,1,.488.165,1.627,1.627,0,0,1,.376.233,1.542,1.542,0,0,1,.267.3,3.482,3.482,0,0,1,.271.488,2.684,2.684,0,0,1,.609-.752,2.081,2.081,0,0,1,.751-.376,3.006,3.006,0,0,1,1.928.064,1.755,1.755,0,0,1,.838.673,2.183,2.183,0,0,1,.334,1.244c0,.24,0,.6-.041,1.086s-.06,1.319-.105,2.5-.071,2.007-.071,2.48h-1.172c-.462,0-.947,0-1.45.023q.064-.992.124-2.491c.041-1,.06-1.691.06-2.074a2.187,2.187,0,0,0-.105-.751.583.583,0,0,0-.594-.428.672.672,0,0,0-.346.086.83.83,0,0,0-.274.293,2.3,2.3,0,0,0-.255.654,5.47,5.47,0,0,0-.12.939c-.03.428-.053.992-.064,1.687l-.045,2.1h-2.634q.056-.7.128-2.337t.071-2.194a2.439,2.439,0,0,0-.083-.7.947.947,0,0,0-.225-.376.515.515,0,0,0-.376-.139.639.639,0,0,0-.447.184,1.444,1.444,0,0,0-.323.515,3.479,3.479,0,0,0-.188.928c-.034.376-.064,1-.094,1.8s-.041,1.582-.045,2.33h-1.3Z" transform="translate(-830.713 -472.878)" fill="#499cfd"/>
      <path id="Path_9885" data-name="Path 9885" d="M848.939,483.348c3.215,8.257,19.7,14.552,39.561,14.552,22.162,0,40.13-7.837,40.13-17.5s-17.968-17.5-40.13-17.5c-20.294,0-37.068,6.571-39.754,15.1l-.115.777.275-.777c2.947-7,17.741-12.331,35.55-12.331,19.926,0,36.093,6.67,36.093,14.893s-16.16,14.9-36.093,14.9c-17.626,0-32.3-5.214-35.457-12.126Z" transform="translate(-739.63 -449.899)" fill="#ff7c7c"/>
    </g>
    <g id="Group_4342" data-name="Group 4342" transform="translate(-2.819 1.754)">
      <path id="Path_9886" data-name="Path 9886" d="M880.885,570.974v2.634h-.525v-6.193h.525v.808h0a1.656,1.656,0,0,1,1.515-.913,1.725,1.725,0,0,1,.723.145,1.557,1.557,0,0,1,.537.4,1.916,1.916,0,0,1,.339.659,3,3,0,0,1,.117.865,3.232,3.232,0,0,1-.133.958,2.189,2.189,0,0,1-.38.743,1.7,1.7,0,0,1-.6.485,1.8,1.8,0,0,1-.808.17,1.434,1.434,0,0,1-1.329-.78Zm0-1.083a1.52,1.52,0,0,0,.1.545,1.4,1.4,0,0,0,.271.448,1.269,1.269,0,0,0,.957.4,1.212,1.212,0,0,0,1.006-.521,1.815,1.815,0,0,0,.275-.6,2.962,2.962,0,0,0,.1-.788,2.332,2.332,0,0,0-.089-.675,1.475,1.475,0,0,0-.259-.509,1.079,1.079,0,0,0-.4-.323,1.18,1.18,0,0,0-.525-.113,1.394,1.394,0,0,0-.594.121,1.284,1.284,0,0,0-.448.335,1.416,1.416,0,0,0-.283.493,1.763,1.763,0,0,0-.1.6Z" transform="translate(-758.541 -512.128)" fill="#fff"/>
      <path id="Path_9887" data-name="Path 9887" d="M892.189,569.635a2.366,2.366,0,0,0,.1.7,1.522,1.522,0,0,0,.283.525,1.21,1.21,0,0,0,.452.327,1.492,1.492,0,0,0,.6.117,2.141,2.141,0,0,0,1.345-.5v.521a2.423,2.423,0,0,1-1.462.432,1.907,1.907,0,0,1-.772-.15,1.615,1.615,0,0,1-.59-.432,2.02,2.02,0,0,1-.372-.695,3.105,3.105,0,0,1-.133-.945,2.606,2.606,0,0,1,.145-.885,2.216,2.216,0,0,1,.4-.7,1.8,1.8,0,0,1,.6-.461,1.737,1.737,0,0,1,.768-.17,1.757,1.757,0,0,1,.719.141,1.455,1.455,0,0,1,.525.4,1.835,1.835,0,0,1,.323.646,3.122,3.122,0,0,1,.109.857v.263Zm2.5-.465a1.616,1.616,0,0,0-.311-1.026,1.03,1.03,0,0,0-.836-.364,1.341,1.341,0,0,0-.5.093,1.152,1.152,0,0,0-.4.279,1.463,1.463,0,0,0-.287.436,2.12,2.12,0,0,0-.158.582Z" transform="translate(-765.264 -512.134)" fill="#fff"/>
      <path id="Path_9888" data-name="Path 9888" d="M904.329,571.76a2.153,2.153,0,0,1-.844-.158,1.8,1.8,0,0,1-.634-.444,1.952,1.952,0,0,1-.4-.691,2.681,2.681,0,0,1-.137-.889,2.879,2.879,0,0,1,.145-.949,2.046,2.046,0,0,1,.424-.711,1.779,1.779,0,0,1,.659-.444,2.356,2.356,0,0,1,.865-.154,2.154,2.154,0,0,1,.808.149,1.665,1.665,0,0,1,.622.44,1.907,1.907,0,0,1,.4.695,2.9,2.9,0,0,1,.137.933,2.8,2.8,0,0,1-.141.9,2.151,2.151,0,0,1-.4.7,1.817,1.817,0,0,1-.642.452A2.146,2.146,0,0,1,904.329,571.76Zm.04-3.979a1.559,1.559,0,0,0-.626.121,1.282,1.282,0,0,0-.481.347,1.616,1.616,0,0,0-.3.566,2.431,2.431,0,0,0-.109.756,2.185,2.185,0,0,0,.109.715,1.618,1.618,0,0,0,.3.549,1.356,1.356,0,0,0,.477.347,1.494,1.494,0,0,0,.626.125,1.532,1.532,0,0,0,.626-.121,1.173,1.173,0,0,0,.461-.343,1.534,1.534,0,0,0,.287-.553,2.611,2.611,0,0,0,.1-.743,2.02,2.02,0,0,0-.38-1.313A1.333,1.333,0,0,0,904.37,567.78Z" transform="translate(-771.623 -512.134)" fill="#fff"/>
      <path id="Path_9889" data-name="Path 9889" d="M915.525,570.974v2.634H915v-6.193h.525v.808h0a1.656,1.656,0,0,1,1.515-.913,1.725,1.725,0,0,1,.723.145,1.557,1.557,0,0,1,.537.4,1.916,1.916,0,0,1,.339.659,3,3,0,0,1,.117.865,3.226,3.226,0,0,1-.133.958,2.189,2.189,0,0,1-.38.743,1.7,1.7,0,0,1-.6.485,1.794,1.794,0,0,1-.808.17,1.434,1.434,0,0,1-1.329-.78Zm0-1.083a1.52,1.52,0,0,0,.1.545,1.4,1.4,0,0,0,.271.448,1.269,1.269,0,0,0,.957.4,1.212,1.212,0,0,0,1.006-.521,1.814,1.814,0,0,0,.275-.6,2.962,2.962,0,0,0,.1-.788,2.332,2.332,0,0,0-.089-.675,1.473,1.473,0,0,0-.259-.509,1.078,1.078,0,0,0-.4-.323,1.179,1.179,0,0,0-.525-.113,1.393,1.393,0,0,0-.594.121,1.284,1.284,0,0,0-.448.335,1.418,1.418,0,0,0-.283.493,1.762,1.762,0,0,0-.1.6Z" transform="translate(-779.187 -512.128)" fill="#fff"/>
      <path id="Path_9890" data-name="Path 9890" d="M927,568.8V562.52h.525V568.8Z" transform="translate(-786.338 -509.273)" fill="#fff"/>
      <path id="Path_9891" data-name="Path 9891" d="M931.445,569.634a2.362,2.362,0,0,0,.105.7,1.458,1.458,0,0,0,.283.525,1.212,1.212,0,0,0,.448.327,1.51,1.51,0,0,0,.6.117,2.157,2.157,0,0,0,1.345-.5v.521a2.423,2.423,0,0,1-1.466.432,1.886,1.886,0,0,1-.768-.149,1.563,1.563,0,0,1-.59-.432,2.021,2.021,0,0,1-.376-.695,3.231,3.231,0,0,1-.129-.945,2.709,2.709,0,0,1,.141-.885,2.216,2.216,0,0,1,.4-.7,1.779,1.779,0,0,1,.606-.461,1.734,1.734,0,0,1,.764-.17,1.762,1.762,0,0,1,.723.141,1.475,1.475,0,0,1,.521.4,1.834,1.834,0,0,1,.323.646,2.968,2.968,0,0,1,.113.857v.263Zm2.5-.465a1.616,1.616,0,0,0-.311-1.026,1.026,1.026,0,0,0-.836-.364,1.305,1.305,0,0,0-.493.093,1.212,1.212,0,0,0-.4.279,1.543,1.543,0,0,0-.287.436,2.446,2.446,0,0,0-.158.582Z" transform="translate(-788.662 -512.134)" fill="#fff"/>
      <path id="Path_9892" data-name="Path 9892" d="M952.209,569.19l-.719-.719a2.622,2.622,0,0,1-1.947.808,2.3,2.3,0,0,1-.772-.117,1.694,1.694,0,0,1-.586-.331,1.418,1.418,0,0,1-.376-.477,1.616,1.616,0,0,1-.129-.642,1.97,1.97,0,0,1,1.353-1.749,2.424,2.424,0,0,1-.65-1.41A1.362,1.362,0,0,1,948.5,564a1.306,1.306,0,0,1,.311-.44,1.469,1.469,0,0,1,.477-.291,1.705,1.705,0,0,1,1.155,0,1.261,1.261,0,0,1,.4.254,1.128,1.128,0,0,1,.267.384,1.284,1.284,0,0,1,.093.489,1.691,1.691,0,0,1-.073.513,1.289,1.289,0,0,1-.238.428,1.993,1.993,0,0,1-.428.38,4.29,4.29,0,0,1-.634.356q.368.4.808.808c.279.279.574.574.893.885a2.878,2.878,0,0,0,.2-.368,3.469,3.469,0,0,0,.158-.4,3.289,3.289,0,0,0,.105-.448,3.577,3.577,0,0,0,.044-.456h.505a3.463,3.463,0,0,1-.695,2.04l.5.493c.186.178.4.4.622.614Zm-1.034-1.05c-.327-.323-.638-.634-.937-.941l-.869-.909a2.488,2.488,0,0,0-.865.61,1.171,1.171,0,0,0-.271.763,1.142,1.142,0,0,0,.1.477,1.062,1.062,0,0,0,.267.368,1.252,1.252,0,0,0,.4.238,1.638,1.638,0,0,0,.541.085A2.206,2.206,0,0,0,951.175,568.139Zm-1.636-2.424a4.149,4.149,0,0,0,.529-.291,1.763,1.763,0,0,0,.364-.3,1.125,1.125,0,0,0,.206-.331,1.141,1.141,0,0,0,.065-.372.809.809,0,0,0-.065-.331.785.785,0,0,0-.174-.263.808.808,0,0,0-.582-.23,1.046,1.046,0,0,0-.4.073.852.852,0,0,0-.3.194.9.9,0,0,0-.19.3.957.957,0,0,0-.069.376A1.935,1.935,0,0,0,949.538,565.715Z" transform="translate(-798.664 -509.661)" fill="#fff"/>
      <path id="Path_9893" data-name="Path 9893" d="M967.81,570.893a1.58,1.58,0,0,0,.259.17,2.583,2.583,0,0,0,.287.129,2.061,2.061,0,0,0,.3.081,1.858,1.858,0,0,0,.287.028c.626,0,.937-.238.937-.711a.555.555,0,0,0-.065-.279.776.776,0,0,0-.19-.214,1.678,1.678,0,0,0-.295-.182c-.117-.057-.246-.113-.4-.174a3.645,3.645,0,0,1-.5-.246,1.346,1.346,0,0,1-.347-.271,1.009,1.009,0,0,1-.2-.323,1.121,1.121,0,0,1-.065-.4,1.022,1.022,0,0,1,.121-.5,1.152,1.152,0,0,1,.327-.372,1.5,1.5,0,0,1,.477-.234,1.991,1.991,0,0,1,.566-.081,2.084,2.084,0,0,1,.953.206v.562a1.826,1.826,0,0,0-1.022-.307,1.268,1.268,0,0,0-.36.049.807.807,0,0,0-.279.141.662.662,0,0,0-.178.218.683.683,0,0,0,0,.554.553.553,0,0,0,.154.214,1.131,1.131,0,0,0,.271.182,3.974,3.974,0,0,0,.4.186,5.625,5.625,0,0,1,.529.246,1.661,1.661,0,0,1,.364.267.909.909,0,0,1,.214.319,1.066,1.066,0,0,1,.073.4,1.1,1.1,0,0,1-.117.509,1.124,1.124,0,0,1-.327.376,1.408,1.408,0,0,1-.489.234,2.219,2.219,0,0,1-.606.077,2.02,2.02,0,0,1-1.075-.267Z" transform="translate(-810.66 -512.127)" fill="#fff"/>
      <path id="Path_9894" data-name="Path 9894" d="M976.961,563.8a.368.368,0,0,1-.263-.109.36.36,0,0,1-.109-.271.364.364,0,0,1,.109-.271.379.379,0,0,1,.263-.105.45.45,0,0,1,.149.028.311.311,0,0,1,.121.077.405.405,0,0,1,.085.117.372.372,0,0,1,.028.154.38.38,0,0,1-.028.149.405.405,0,0,1-.081.121.49.49,0,0,1-.121.081.4.4,0,0,1-.154.028Zm-.259,5.317V564.87h.529v4.242Z" transform="translate(-815.894 -509.583)" fill="#fff"/>
      <path id="Path_9895" data-name="Path 9895" d="M981.54,568.8V562.52h.525V568.8Z" transform="translate(-818.844 -509.273)" fill="#fff"/>
      <path id="Path_9896" data-name="Path 9896" d="M986.291,563.8a.368.368,0,0,1-.263-.109.391.391,0,0,1,0-.541.38.38,0,0,1,.263-.105.449.449,0,0,1,.15.028.312.312,0,0,1,.121.077.406.406,0,0,1,.085.117.372.372,0,0,1,.028.154.379.379,0,0,1-.028.149.4.4,0,0,1-.081.121.489.489,0,0,1-.121.081.4.4,0,0,1-.154.028Zm-.259,5.317V564.87h.529v4.242Z" transform="translate(-821.454 -509.583)" fill="#fff"/>
      <path id="Path_9897" data-name="Path 9897" d="M993.223,571.473a2.182,2.182,0,0,1-1.135.291,1.883,1.883,0,0,1-.808-.157,1.717,1.717,0,0,1-.618-.448,1.942,1.942,0,0,1-.4-.679,2.636,2.636,0,0,1-.137-.852,2.749,2.749,0,0,1,.145-.9,2.179,2.179,0,0,1,.4-.731,1.942,1.942,0,0,1,.675-.5,2.181,2.181,0,0,1,.913-.182,2.239,2.239,0,0,1,.953.2v.566a1.75,1.75,0,0,0-.994-.307,1.524,1.524,0,0,0-.667.141,1.464,1.464,0,0,0-.493.4,1.694,1.694,0,0,0-.3.574,2.338,2.338,0,0,0-.105.7,2.3,2.3,0,0,0,.089.65,1.586,1.586,0,0,0,.271.549,1.344,1.344,0,0,0,.465.38,1.451,1.451,0,0,0,.659.141,1.733,1.733,0,0,0,1.067-.36Z" transform="translate(-823.958 -512.134)" fill="#fff"/>
      <path id="Path_9898" data-name="Path 9898" d="M1001.6,571.76a2.154,2.154,0,0,1-.844-.158,1.8,1.8,0,0,1-.634-.444,1.952,1.952,0,0,1-.4-.691,2.684,2.684,0,0,1-.137-.889,2.876,2.876,0,0,1,.145-.949,2.043,2.043,0,0,1,.4-.711,1.778,1.778,0,0,1,.658-.444,2.356,2.356,0,0,1,.865-.154,2.153,2.153,0,0,1,.808.149,1.7,1.7,0,0,1,.622.44,1.909,1.909,0,0,1,.4.695,2.909,2.909,0,0,1,.137.933,2.8,2.8,0,0,1-.141.9,2.086,2.086,0,0,1-.4.7,1.766,1.766,0,0,1-.638.452A2.157,2.157,0,0,1,1001.6,571.76Zm.04-3.979a1.559,1.559,0,0,0-.626.121,1.282,1.282,0,0,0-.481.347,1.552,1.552,0,0,0-.3.566,2.423,2.423,0,0,0-.109.756,2.182,2.182,0,0,0,.109.715,1.618,1.618,0,0,0,.3.549,1.357,1.357,0,0,0,.477.347,1.494,1.494,0,0,0,.626.125,1.532,1.532,0,0,0,.626-.121,1.214,1.214,0,0,0,.461-.343,1.533,1.533,0,0,0,.287-.554,2.772,2.772,0,0,0,.093-.743,2.02,2.02,0,0,0-.376-1.313A1.333,1.333,0,0,0,1001.64,567.78Z" transform="translate(-829.596 -512.134)" fill="#fff"/>
      <path id="Path_9899" data-name="Path 9899" d="M1015.12,571.641v-2.452c0-.961-.347-1.438-1.038-1.438a1.176,1.176,0,0,0-.509.109,1.212,1.212,0,0,0-.4.3,1.5,1.5,0,0,0-.267.465,1.685,1.685,0,0,0-.1.578v2.424h-.525v-4.242h.525v.735h0a1.523,1.523,0,0,1,1.414-.836,1.257,1.257,0,0,1,1.05.453,2.02,2.02,0,0,1,.364,1.3v2.586Z" transform="translate(-837.165 -512.112)" fill="#fff"/>
      <path id="Path_9900" data-name="Path 9900" d="M1023.559,569.635a2.36,2.36,0,0,0,.1.7,1.615,1.615,0,0,0,.283.525,1.212,1.212,0,0,0,.452.327,1.492,1.492,0,0,0,.6.117,2.14,2.14,0,0,0,1.345-.5v.521a2.424,2.424,0,0,1-1.462.432,1.907,1.907,0,0,1-.772-.15,1.551,1.551,0,0,1-.586-.432,2.02,2.02,0,0,1-.376-.695,3.1,3.1,0,0,1-.133-.945,2.6,2.6,0,0,1,.146-.885,2.214,2.214,0,0,1,.4-.7,1.8,1.8,0,0,1,.6-.461,1.858,1.858,0,0,1,1.487-.028,1.455,1.455,0,0,1,.525.4,1.833,1.833,0,0,1,.323.646,3.122,3.122,0,0,1,.109.857v.263Zm2.5-.465a1.616,1.616,0,0,0-.311-1.026,1.03,1.03,0,0,0-.836-.364,1.342,1.342,0,0,0-.5.093,1.153,1.153,0,0,0-.4.279,1.464,1.464,0,0,0-.287.436,2.119,2.119,0,0,0-.158.582Z" transform="translate(-843.56 -512.134)" fill="#fff"/>
    </g>
  </g>
</svg>
