<svg id="_001-facebook" data-name="001-facebook" xmlns="http://www.w3.org/2000/svg" width="24" height="24" viewBox="0 0 24 24">
  <path id="Path_12446" data-name="Path 12446" d="M21,0H3A3,3,0,0,0,0,3V21a3,3,0,0,0,3,3H21a3,3,0,0,0,3-3V3A3,3,0,0,0,21,0Z" transform="translate(0 0)" fill="#1976d2"/>
  <path id="Path_12447" data-name="Path 12447" d="M201.309,102.206h-3.1V99.724c0-.685.556-.621,1.241-.621h1.241V96h-2.482a3.723,3.723,0,0,0-3.724,3.724v2.482H192v3.1h2.482v6.826h3.724v-6.826h1.862Z" transform="translate(-181.63 -88.135)" fill="#fafafa"/>
</svg>
