<svg xmlns="http://www.w3.org/2000/svg" width="24" height="24" viewBox="0 0 24 24">
  <g id="Group_4456" data-name="Group 4456" transform="translate(23977 21443)">
    <rect id="Rectangle_510" data-name="Rectangle 510" width="24" height="24" rx="5" transform="translate(-23977 -21443)" fill="#03c4a1"/>
    <g id="whatsapp" transform="translate(-23973.045 -21439.045)">
      <path id="Path_12458" data-name="Path 12458" d="M0,16l1.1-4A7.957,7.957,0,0,1,7.972,0,8.036,8.036,0,0,1,16,7.945,8.131,8.131,0,0,1,7.972,16a8.031,8.031,0,0,1-3.89-1.1Z" transform="translate(0)" fill="#fff"/>
      <path id="Path_12459" data-name="Path 12459" d="M47.06,56.213l.248.138a6.546,6.546,0,0,0,3.446,1.02A6.683,6.683,0,0,0,57.371,50.7a6.617,6.617,0,0,0-13.233,0,6.678,6.678,0,0,0,1.02,3.556l.165.248-.634,2.316Z" transform="translate(-42.754 -42.754)" fill="#03c4a1"/>
      <path id="Path_12460" data-name="Path 12460" d="M131.51,135.09l-.526-.028a.628.628,0,0,0-.443.166,2.293,2.293,0,0,0-.775,1.19,3.6,3.6,0,0,0,.83,2.823,8.386,8.386,0,0,0,4.538,3.293,2.248,2.248,0,0,0,1.882-.221,1.633,1.633,0,0,0,.72-1.052l.083-.387a.278.278,0,0,0-.138-.3l-1.743-.8a.264.264,0,0,0-.332.083l-.692.886a.215.215,0,0,1-.221.055,5.378,5.378,0,0,1-2.906-2.491.209.209,0,0,1,.028-.221l.664-.747a.341.341,0,0,0,.055-.277l-.8-1.8a.241.241,0,0,0-.221-.166" transform="translate(-125.67 -130.853)" fill="#fefefe"/>
    </g>
  </g>
</svg>
