<svg xmlns="http://www.w3.org/2000/svg" width="135" height="80" viewBox="0 0 135 80">
  <g id="Group_4362" data-name="Group 4362" transform="translate(-110 -15.305)">
    <g id="Group_4341" data-name="Group 4341" transform="translate(110 15.305)">
      <path id="Path_9879" data-name="Path 9879" d="M875.485,501.029h6.592q-.139,1.8-.291,5.11t-.184,5c-.855.184-1.558.317-2.121.4s-1.229.158-2.014.222-1.488.1-2.1.1a14.993,14.993,0,0,1-2.97-.291,8.692,8.692,0,0,1-2.6-.931,5.778,5.778,0,0,1-1.9-1.754,8.587,8.587,0,0,1-1.184-2.622,11.731,11.731,0,0,1-.418-3.166,11.051,11.051,0,0,1,1.127-4.965,8.778,8.778,0,0,1,3.223-3.628,10.012,10.012,0,0,1,5.446-1.336,23.428,23.428,0,0,1,5.389.7c0,1.266.044,2.71.146,4.281-.538-.209-.969-.374-1.3-.481a11.9,11.9,0,0,0-1.153-.3c-.443-.089-.861-.158-1.266-.2a9.633,9.633,0,0,0-1.058-.07,6.372,6.372,0,0,0-2.311.418,4.787,4.787,0,0,0-1.9,1.266,5.55,5.55,0,0,0-1.172,2.058,8.165,8.165,0,0,0-.393,2.533,6.28,6.28,0,0,0,.443,2.413,3.266,3.266,0,0,0,1.412,1.615,4.3,4.3,0,0,0,2.159.551,7.818,7.818,0,0,0,2.166-.342l.127-2.856-.855-.038h-1.184l.082-1.621v-.76C875.421,501.992,875.485,501.6,875.485,501.029Z" transform="translate(-855.107 -474.129)" fill="#ff7c7c"/>
      <path id="Path_9880" data-name="Path 9880" d="M903.767,493.22a10.357,10.357,0,0,1,3.42.564,7.447,7.447,0,0,1,2.881,1.811,8.055,8.055,0,0,1,1.843,2.862,10.586,10.586,0,0,1,.633,3.73,11.954,11.954,0,0,1-.716,4.065,8.587,8.587,0,0,1-1.944,3.166,7.6,7.6,0,0,1-3.02,1.9,11.29,11.29,0,0,1-3.66.633,11.038,11.038,0,0,1-3.6-.589,7.388,7.388,0,0,1-3-1.9,7.693,7.693,0,0,1-1.811-2.919,11.313,11.313,0,0,1-.532-3.572,10.832,10.832,0,0,1,1.127-5.066,8.042,8.042,0,0,1,3.35-3.407A10.132,10.132,0,0,1,903.767,493.22Zm-.2,3.964a3.869,3.869,0,0,0-2.311.741A4.71,4.71,0,0,0,899.664,500a7.2,7.2,0,0,0-.557,2.837,6.332,6.332,0,0,0,.507,2.533,3.95,3.95,0,0,0,1.539,1.811,4.066,4.066,0,0,0,2.191.633,3.8,3.8,0,0,0,2.261-.728,4.584,4.584,0,0,0,1.571-2.052,7.408,7.408,0,0,0,.538-2.774,6.711,6.711,0,0,0-.5-2.6,4.059,4.059,0,0,0-1.469-1.849,3.748,3.748,0,0,0-2.147-.621Z" transform="translate(-865.648 -474.153)" fill="#ff7c7c"/>
      <path id="Path_9881" data-name="Path 9881" d="M938.841,509.9c-.038.355-.12,1-.26,1.938l-.279,2.109a12.267,12.267,0,0,1-3.407.519,6.966,6.966,0,0,1-2.128-.279,4.617,4.617,0,0,1-1.938-1.2,5.339,5.339,0,0,1-1.266-2.115,10.134,10.134,0,0,1-.494-3.211,10.453,10.453,0,0,1,.456-3.166,6.334,6.334,0,0,1,1.336-2.463,4.579,4.579,0,0,1,2.02-1.33,8.49,8.49,0,0,1,2.451-.348,13.472,13.472,0,0,1,1.59.089,13.863,13.863,0,0,1,1.982.418v.3c0,.317.038.633.057.969s.038.849.076,1.558l.076,1.178a7.409,7.409,0,0,0-2.818-.633,2.937,2.937,0,0,0-1.539.405,2.411,2.411,0,0,0-.969,1.165,4.6,4.6,0,0,0-.31,1.76,4.534,4.534,0,0,0,.291,1.7,2.014,2.014,0,0,0,.956,1,2.806,2.806,0,0,0,1.368.336,5.656,5.656,0,0,0,.893-.1,8.365,8.365,0,0,0,.906-.241,7.093,7.093,0,0,0,.95-.361Z" transform="translate(-878.595 -476.782)" fill="#499cfd"/>
      <path id="Path_9882" data-name="Path 9882" d="M947.65,511.627c.114-1.3.2-2.381.241-3.223q.139-2.653.3-6.155.082-2.318.127-4.433t0-4.148h2.3c.8,0,1.551,0,2.267-.038l-.215,3.166c-.038.532-.089,1.6-.165,3.2a9.7,9.7,0,0,1,.6-.823,4.349,4.349,0,0,1,.519-.507,3.486,3.486,0,0,1,1.267-.671,5.313,5.313,0,0,1,.842-.19,6.875,6.875,0,0,1,2.78.171,3.444,3.444,0,0,1,1.513.868,3.316,3.316,0,0,1,.849,1.393,5.931,5.931,0,0,1,.228,1.691c0,.241,0,.551,0,.944a12.116,12.116,0,0,1-.07,1.482l-.222,4.433c0,.557-.038,1.013-.038,1.38v1.374h-2.216c-.709,0-1.6,0-2.412.038.12-1.172.228-2.533.31-4.04s.133-2.66.127-3.407a2.646,2.646,0,0,0-.443-1.735,1.451,1.451,0,0,0-1.165-.494,2.071,2.071,0,0,0-1.146.323,2.33,2.33,0,0,0-.773.855,4.861,4.861,0,0,0-.475,1.412,25.7,25.7,0,0,0-.329,3.312q-.057,1.2-.108,3.8h-2.1Z" transform="translate(-885.533 -474.303)" fill="#499cfd"/>
      <path id="Path_9883" data-name="Path 9883" d="M983.023,509.872c-.095.526-.272,1.8-.532,3.8a20.458,20.458,0,0,1-2.166.412,16.605,16.605,0,0,1-1.78.108,12.75,12.75,0,0,1-2.438-.2,5.212,5.212,0,0,1-1.9-.76,4.916,4.916,0,0,1-1.355-1.374,6.271,6.271,0,0,1-.842-1.944,9.556,9.556,0,0,1-.292-2.33,9.834,9.834,0,0,1,.551-3.3,6.689,6.689,0,0,1,1.444-2.533,5.116,5.116,0,0,1,2.058-1.3,7.858,7.858,0,0,1,2.387-.393,8.231,8.231,0,0,1,2.419.342,4.306,4.306,0,0,1,1.957,1.2,5.067,5.067,0,0,1,1.146,1.957,7.844,7.844,0,0,1,.354,2.356,11.07,11.07,0,0,1-.139,1.678l-7.789.051v.38a2.483,2.483,0,0,0,.855,2.134,3.325,3.325,0,0,0,2.1.633,8.291,8.291,0,0,0,1.672-.215A19.839,19.839,0,0,0,983.023,509.872Zm-6.852-4.217h3.666v-.386a2.983,2.983,0,0,0-.209-1.171,1.407,1.407,0,0,0-.6-.7,1.648,1.648,0,0,0-.861-.222,1.749,1.749,0,0,0-.633.127,1.8,1.8,0,0,0-.557.374,2.153,2.153,0,0,0-.412.564,2.591,2.591,0,0,0-.247.633A6.731,6.731,0,0,0,976.172,505.654Z" transform="translate(-894.497 -476.672)" fill="#499cfd"/>
      <path id="Path_9884" data-name="Path 9884" d="M993.55,513.8l.279-6.332.159-4.965v-2.134h2.159c.7,0,1.387,0,2.058-.038l-.07,1.748a9.3,9.3,0,0,1,.576-.811,3.748,3.748,0,0,1,.583-.545,3.37,3.37,0,0,1,.709-.411,4.736,4.736,0,0,1,1.779-.342,4.57,4.57,0,0,1,1.045.108,3.691,3.691,0,0,1,.823.279,2.741,2.741,0,0,1,.633.393,2.6,2.6,0,0,1,.45.5,5.852,5.852,0,0,1,.456.823,4.529,4.529,0,0,1,1.026-1.267,3.508,3.508,0,0,1,1.266-.633,5.065,5.065,0,0,1,3.249.108,2.957,2.957,0,0,1,1.412,1.133,3.681,3.681,0,0,1,.564,2.1c0,.405,0,1.013-.07,1.83s-.1,2.223-.177,4.211-.12,3.382-.12,4.18h-1.976c-.779,0-1.6,0-2.444.038q.107-1.672.209-4.2c.07-1.678.1-2.85.1-3.5a3.686,3.686,0,0,0-.177-1.266.982.982,0,0,0-1-.722,1.133,1.133,0,0,0-.583.146,1.4,1.4,0,0,0-.462.494,3.88,3.88,0,0,0-.431,1.1,9.231,9.231,0,0,0-.2,1.583c-.051.722-.089,1.672-.107,2.843l-.076,3.533h-4.439q.1-1.172.215-3.939t.12-3.7a4.123,4.123,0,0,0-.139-1.184,1.6,1.6,0,0,0-.38-.633.867.867,0,0,0-.633-.234,1.077,1.077,0,0,0-.754.31,2.434,2.434,0,0,0-.544.868,5.867,5.867,0,0,0-.317,1.564c-.057.633-.108,1.678-.158,3.04s-.07,2.666-.076,3.926H995.9Z" transform="translate(-902.681 -476.637)" fill="#499cfd"/>
      <path id="Path_9885" data-name="Path 9885" d="M849.151,496.909c5.425,13.733,33.248,24.2,66.759,24.2,37.4,0,67.72-13.034,67.72-29.112s-30.322-29.1-67.72-29.1c-34.246,0-62.552,10.929-67.086,25.11l-.195,1.292.464-1.292c4.973-11.647,29.939-20.509,59.99-20.509,33.625,0,60.907,11.093,60.907,24.77s-27.27,24.776-60.907,24.776c-29.744,0-54.508-8.672-59.833-20.168Z" transform="translate(-848.63 -462.9)" fill="#ff7c7c"/>
    </g>
    <g id="Group_4342" data-name="Group 4342" transform="translate(125.168 81.43)">
      <path id="Path_9886" data-name="Path 9886" d="M881.245,573.485v4.439h-.885V567.487h.885v1.362h0a2.791,2.791,0,0,1,2.553-1.539,2.9,2.9,0,0,1,1.219.245,2.624,2.624,0,0,1,.905.681,3.232,3.232,0,0,1,.572,1.11,5.056,5.056,0,0,1,.2,1.457,5.45,5.45,0,0,1-.225,1.614,3.692,3.692,0,0,1-.64,1.253,2.858,2.858,0,0,1-1.008.817,3.023,3.023,0,0,1-1.362.286,2.418,2.418,0,0,1-2.24-1.314Zm0-1.825a2.564,2.564,0,0,0,.163.919,2.362,2.362,0,0,0,.456.756,2.138,2.138,0,0,0,1.614.681,2.043,2.043,0,0,0,1.7-.878,3.058,3.058,0,0,0,.463-1.008,5,5,0,0,0,.163-1.328,3.929,3.929,0,0,0-.15-1.137,2.486,2.486,0,0,0-.436-.858,1.819,1.819,0,0,0-.681-.545,1.986,1.986,0,0,0-.885-.191,2.347,2.347,0,0,0-1,.2,2.165,2.165,0,0,0-.756.565,2.387,2.387,0,0,0-.477.831,2.968,2.968,0,0,0-.17,1.015Z" transform="translate(-880.36 -564.049)" fill="#fff"/>
      <path id="Path_9887" data-name="Path 9887" d="M892.566,571.221a3.986,3.986,0,0,0,.17,1.185,2.564,2.564,0,0,0,.477.885,2.037,2.037,0,0,0,.763.552,2.513,2.513,0,0,0,1.008.2,3.61,3.61,0,0,0,2.267-.844v.878a4.084,4.084,0,0,1-2.465.729,3.211,3.211,0,0,1-1.3-.252,2.722,2.722,0,0,1-.994-.728,3.4,3.4,0,0,1-.626-1.171,5.232,5.232,0,0,1-.225-1.593,4.391,4.391,0,0,1,.245-1.491,3.734,3.734,0,0,1,.681-1.185,3.039,3.039,0,0,1,1.015-.776,2.927,2.927,0,0,1,1.294-.286,2.962,2.962,0,0,1,1.212.238,2.452,2.452,0,0,1,.885.681,3.09,3.09,0,0,1,.545,1.089,5.259,5.259,0,0,1,.184,1.444v.442Zm4.215-.783a2.723,2.723,0,0,0-.524-1.729,1.736,1.736,0,0,0-1.409-.613,2.26,2.26,0,0,0-.837.156,1.94,1.94,0,0,0-.681.47,2.464,2.464,0,0,0-.483.735,3.573,3.573,0,0,0-.266.981Z" transform="translate(-883.96 -564.052)" fill="#fff"/>
      <path id="Path_9888" data-name="Path 9888" d="M905.714,574.8a3.629,3.629,0,0,1-1.423-.266,3.04,3.04,0,0,1-1.069-.749,3.289,3.289,0,0,1-.681-1.164,4.519,4.519,0,0,1-.232-1.5,4.852,4.852,0,0,1,.245-1.6,3.448,3.448,0,0,1,.715-1.2,3,3,0,0,1,1.11-.749,3.971,3.971,0,0,1,1.457-.259,3.631,3.631,0,0,1,1.362.252,2.8,2.8,0,0,1,1.049.742,3.214,3.214,0,0,1,.681,1.171,4.882,4.882,0,0,1,.232,1.573,4.717,4.717,0,0,1-.238,1.525,3.624,3.624,0,0,1-.681,1.185,3.06,3.06,0,0,1-1.083.763A3.619,3.619,0,0,1,905.714,574.8Zm.068-6.706a2.629,2.629,0,0,0-1.055.2,2.16,2.16,0,0,0-.81.586,2.723,2.723,0,0,0-.51.953,4.1,4.1,0,0,0-.184,1.273,3.682,3.682,0,0,0,.184,1.205,2.727,2.727,0,0,0,.5.926,2.287,2.287,0,0,0,.8.585,2.517,2.517,0,0,0,1.055.211,2.581,2.581,0,0,0,1.055-.2,1.977,1.977,0,0,0,.776-.579,2.587,2.587,0,0,0,.483-.933,4.4,4.4,0,0,0,.163-1.253,3.406,3.406,0,0,0-.64-2.213A2.247,2.247,0,0,0,905.782,568.1Z" transform="translate(-887.366 -564.051)" fill="#fff"/>
      <path id="Path_9889" data-name="Path 9889" d="M915.885,573.485v4.439H915V567.487h.885v1.362h0a2.791,2.791,0,0,1,2.553-1.539,2.9,2.9,0,0,1,1.219.245,2.623,2.623,0,0,1,.906.681,3.232,3.232,0,0,1,.572,1.11,5.059,5.059,0,0,1,.2,1.457,5.434,5.434,0,0,1-.225,1.614,3.69,3.69,0,0,1-.64,1.253,2.858,2.858,0,0,1-1.008.817,3.022,3.022,0,0,1-1.362.286,2.417,2.417,0,0,1-2.24-1.314Zm0-1.825a2.566,2.566,0,0,0,.163.919,2.363,2.363,0,0,0,.456.756,2.138,2.138,0,0,0,1.613.681,2.043,2.043,0,0,0,1.7-.878,3.061,3.061,0,0,0,.463-1.008,5,5,0,0,0,.163-1.328,3.933,3.933,0,0,0-.15-1.137,2.481,2.481,0,0,0-.436-.858,1.817,1.817,0,0,0-.681-.545,1.984,1.984,0,0,0-.885-.191,2.346,2.346,0,0,0-1,.2,2.164,2.164,0,0,0-.756.565,2.389,2.389,0,0,0-.477.831,2.97,2.97,0,0,0-.17,1.015Z" transform="translate(-891.372 -564.049)" fill="#fff"/>
      <path id="Path_9890" data-name="Path 9890" d="M927,573.107V562.52h.885v10.587Z" transform="translate(-895.189 -562.52)" fill="#fff"/>
      <path id="Path_9891" data-name="Path 9891" d="M931.819,571.221a3.981,3.981,0,0,0,.177,1.185,2.457,2.457,0,0,0,.477.885,2.042,2.042,0,0,0,.756.551,2.545,2.545,0,0,0,1.014.2,3.635,3.635,0,0,0,2.267-.844v.878a4.084,4.084,0,0,1-2.471.728,3.178,3.178,0,0,1-1.294-.252,2.634,2.634,0,0,1-.994-.729,3.409,3.409,0,0,1-.633-1.171,5.448,5.448,0,0,1-.218-1.593,4.569,4.569,0,0,1,.238-1.491,3.733,3.733,0,0,1,.681-1.185,3,3,0,0,1,1.021-.776,2.922,2.922,0,0,1,1.287-.286,2.969,2.969,0,0,1,1.219.238,2.486,2.486,0,0,1,.878.681,3.087,3.087,0,0,1,.545,1.089,5,5,0,0,1,.191,1.443v.443Zm4.214-.783a2.724,2.724,0,0,0-.524-1.729,1.73,1.73,0,0,0-1.409-.613,2.2,2.2,0,0,0-.831.157,2.041,2.041,0,0,0-.681.47,2.6,2.6,0,0,0-.483.735,4.118,4.118,0,0,0-.266.98Z" transform="translate(-896.426 -564.052)" fill="#fff"/>
      <path id="Path_9892" data-name="Path 9892" d="M955.312,573.315,954.1,572.1a4.42,4.42,0,0,1-3.282,1.362,3.869,3.869,0,0,1-1.3-.2,2.855,2.855,0,0,1-.987-.558,2.389,2.389,0,0,1-.633-.8,2.724,2.724,0,0,1-.218-1.083q0-1.852,2.281-2.948a4.084,4.084,0,0,1-1.1-2.376,2.3,2.3,0,0,1,.19-.926,2.2,2.2,0,0,1,.524-.742,2.475,2.475,0,0,1,.8-.49,2.874,2.874,0,0,1,1.947,0,2.126,2.126,0,0,1,.681.429,1.9,1.9,0,0,1,.449.647,2.166,2.166,0,0,1,.156.824,2.85,2.85,0,0,1-.122.865,2.173,2.173,0,0,1-.4.722,3.357,3.357,0,0,1-.722.64,7.235,7.235,0,0,1-1.069.6q.619.681,1.362,1.362c.47.47.967.967,1.5,1.491a4.85,4.85,0,0,0,.34-.62,5.849,5.849,0,0,0,.266-.681,5.561,5.561,0,0,0,.177-.756,6.054,6.054,0,0,0,.075-.769h.851a5.835,5.835,0,0,1-1.171,3.438l.837.831c.313.3.681.681,1.049,1.035Zm-1.743-1.77c-.552-.545-1.076-1.069-1.58-1.586l-1.464-1.532a4.193,4.193,0,0,0-1.457,1.028,1.975,1.975,0,0,0-.456,1.287,1.925,1.925,0,0,0,.163.8,1.788,1.788,0,0,0,.449.62,2.11,2.11,0,0,0,.681.4,2.759,2.759,0,0,0,.912.143A3.718,3.718,0,0,0,953.57,571.545Zm-2.757-4.085a7,7,0,0,0,.892-.49,2.968,2.968,0,0,0,.613-.511,1.891,1.891,0,0,0,.347-.558,1.918,1.918,0,0,0,.109-.626,1.361,1.361,0,0,0-.109-.558,1.321,1.321,0,0,0-.293-.443,1.362,1.362,0,0,0-.98-.388,1.762,1.762,0,0,0-.681.123,1.434,1.434,0,0,0-.5.327,1.513,1.513,0,0,0-.32.511,1.612,1.612,0,0,0-.116.633A3.261,3.261,0,0,0,950.812,567.459Z" transform="translate(-901.759 -562.728)" fill="#fff"/>
      <path id="Path_9893" data-name="Path 9893" d="M967.81,573.349a2.661,2.661,0,0,0,.436.286,4.364,4.364,0,0,0,.483.218,3.485,3.485,0,0,0,.5.136,3.13,3.13,0,0,0,.483.048c1.055,0,1.58-.4,1.58-1.2a.935.935,0,0,0-.109-.47,1.308,1.308,0,0,0-.32-.361,2.83,2.83,0,0,0-.5-.306c-.2-.1-.415-.191-.681-.293a6.159,6.159,0,0,1-.844-.415,2.271,2.271,0,0,1-.585-.456,1.7,1.7,0,0,1-.34-.545,1.89,1.89,0,0,1-.109-.681,1.722,1.722,0,0,1,.2-.844,1.942,1.942,0,0,1,.551-.626,2.532,2.532,0,0,1,.8-.395,3.352,3.352,0,0,1,.953-.136,3.511,3.511,0,0,1,1.607.347v.946a3.077,3.077,0,0,0-1.722-.517,2.139,2.139,0,0,0-.606.082,1.361,1.361,0,0,0-.47.238,1.115,1.115,0,0,0-.3.368,1.15,1.15,0,0,0,0,.933.931.931,0,0,0,.259.361,1.91,1.91,0,0,0,.456.306,6.688,6.688,0,0,0,.681.313,9.467,9.467,0,0,1,.892.415,2.793,2.793,0,0,1,.613.449,1.532,1.532,0,0,1,.361.538,1.8,1.8,0,0,1,.123.681,1.851,1.851,0,0,1-.2.858,1.894,1.894,0,0,1-.552.633,2.373,2.373,0,0,1-.824.395,3.743,3.743,0,0,1-1.021.13,3.4,3.4,0,0,1-1.811-.45Z" transform="translate(-908.161 -564.047)" fill="#fff"/>
      <path id="Path_9894" data-name="Path 9894" d="M977.216,564.313a.62.62,0,0,1-.443-.184.606.606,0,0,1-.184-.456.613.613,0,0,1,.184-.456.639.639,0,0,1,.443-.177.757.757,0,0,1,.252.048.525.525,0,0,1,.2.129.685.685,0,0,1,.143.2.628.628,0,0,1,.048.259.638.638,0,0,1-.048.252.681.681,0,0,1-.136.2.826.826,0,0,1-.2.136.681.681,0,0,1-.259.048Zm-.436,8.96v-7.149h.892v7.149Z" transform="translate(-910.957 -562.685)" fill="#fff"/>
      <path id="Path_9895" data-name="Path 9895" d="M981.54,573.107V562.52h.885v10.587Z" transform="translate(-912.531 -562.52)" fill="#fff"/>
      <path id="Path_9896" data-name="Path 9896" d="M986.546,564.313a.619.619,0,0,1-.443-.184.606.606,0,0,1-.184-.456.613.613,0,0,1,.184-.456.64.64,0,0,1,.443-.177.755.755,0,0,1,.252.048.527.527,0,0,1,.2.129.687.687,0,0,1,.143.2.626.626,0,0,1,.047.259.636.636,0,0,1-.047.252.677.677,0,0,1-.136.2.822.822,0,0,1-.2.136.68.68,0,0,1-.259.048Zm-.436,8.96v-7.149H987v7.149Z" transform="translate(-913.923 -562.685)" fill="#fff"/>
      <path id="Path_9897" data-name="Path 9897" d="M995.349,574.319a3.677,3.677,0,0,1-1.913.49,3.172,3.172,0,0,1-1.362-.265,2.892,2.892,0,0,1-1.042-.756,3.275,3.275,0,0,1-.681-1.144,4.44,4.44,0,0,1-.231-1.437,4.631,4.631,0,0,1,.245-1.511,3.669,3.669,0,0,1,.681-1.232,3.272,3.272,0,0,1,1.137-.837,3.676,3.676,0,0,1,1.539-.307,3.772,3.772,0,0,1,1.607.34v.953a2.949,2.949,0,0,0-1.675-.517,2.568,2.568,0,0,0-1.123.238,2.467,2.467,0,0,0-.831.681,2.857,2.857,0,0,0-.511.967,3.938,3.938,0,0,0-.177,1.178,3.871,3.871,0,0,0,.15,1.1,2.677,2.677,0,0,0,.456.926,2.265,2.265,0,0,0,.783.64,2.444,2.444,0,0,0,1.11.238,2.92,2.92,0,0,0,1.8-.606Z" transform="translate(-915.255 -564.052)" fill="#fff"/>
      <path id="Path_9898" data-name="Path 9898" d="M1002.984,574.8a3.631,3.631,0,0,1-1.423-.266,3.036,3.036,0,0,1-1.069-.749,3.291,3.291,0,0,1-.681-1.164,4.525,4.525,0,0,1-.231-1.5,4.848,4.848,0,0,1,.245-1.6,3.443,3.443,0,0,1,.681-1.2,3,3,0,0,1,1.11-.749,3.97,3.97,0,0,1,1.457-.259,3.631,3.631,0,0,1,1.362.252,2.86,2.86,0,0,1,1.049.742,3.22,3.22,0,0,1,.681,1.171,4.9,4.9,0,0,1,.231,1.573,4.711,4.711,0,0,1-.238,1.525,3.516,3.516,0,0,1-.681,1.185,2.974,2.974,0,0,1-1.076.763A3.634,3.634,0,0,1,1002.984,574.8Zm.068-6.706a2.628,2.628,0,0,0-1.055.2,2.157,2.157,0,0,0-.81.586,2.618,2.618,0,0,0-.511.953,4.087,4.087,0,0,0-.184,1.273,3.676,3.676,0,0,0,.184,1.205,2.727,2.727,0,0,0,.5.926,2.287,2.287,0,0,0,.8.585,2.517,2.517,0,0,0,1.055.211,2.58,2.58,0,0,0,1.055-.2,2.045,2.045,0,0,0,.776-.579,2.581,2.581,0,0,0,.483-.933,4.666,4.666,0,0,0,.157-1.253,3.4,3.4,0,0,0-.633-2.213A2.247,2.247,0,0,0,1003.052,568.1Z" transform="translate(-918.231 -564.051)" fill="#fff"/>
      <path id="Path_9899" data-name="Path 9899" d="M1017.067,574.628v-4.133c0-1.62-.586-2.424-1.75-2.424a1.984,1.984,0,0,0-.858.184,2.041,2.041,0,0,0-.681.511,2.533,2.533,0,0,0-.449.783,2.841,2.841,0,0,0-.163.974v4.085h-.885v-7.149h.885V568.7h0a2.567,2.567,0,0,1,2.383-1.409,2.118,2.118,0,0,1,1.77.763,3.4,3.4,0,0,1,.613,2.2v4.358Z" transform="translate(-922.284 -564.04)" fill="#fff"/>
      <path id="Path_9900" data-name="Path 9900" d="M1023.936,571.221a3.969,3.969,0,0,0,.17,1.185,2.719,2.719,0,0,0,.476.885,2.043,2.043,0,0,0,.763.552,2.514,2.514,0,0,0,1.008.2,3.606,3.606,0,0,0,2.267-.844v.878a4.085,4.085,0,0,1-2.464.729,3.215,3.215,0,0,1-1.3-.252,2.616,2.616,0,0,1-.987-.728,3.406,3.406,0,0,1-.633-1.171,5.225,5.225,0,0,1-.225-1.593,4.388,4.388,0,0,1,.245-1.491,3.727,3.727,0,0,1,.681-1.185,3.033,3.033,0,0,1,1.015-.776,3.132,3.132,0,0,1,2.505-.048,2.45,2.45,0,0,1,.885.681,3.085,3.085,0,0,1,.545,1.089,5.244,5.244,0,0,1,.184,1.443v.442Zm4.214-.783a2.724,2.724,0,0,0-.524-1.729,1.737,1.737,0,0,0-1.409-.613,2.264,2.264,0,0,0-.838.157,1.943,1.943,0,0,0-.681.47,2.468,2.468,0,0,0-.483.735,3.577,3.577,0,0,0-.265.981Z" transform="translate(-925.708 -564.051)" fill="#fff"/>
    </g>
  </g>
</svg>
