<svg xmlns="http://www.w3.org/2000/svg" xlink="http://www.w3.org/1999/xlink" width="0" height="0" style="display:none;"><symbol viewBox="0 0 24 24" id="contacts-book-2-fill"><path fill="none" d="M0 0h24v24H0z"/><path d="M20 22H6a3 3 0 0 1-3-3V5a3 3 0 0 1 3-3h14a1 1 0 0 1 1 1v18a1 1 0 0 1-1 1zm-1-2v-2H6a1 1 0 0 0 0 2h13zm-7-10a2 2 0 1 0 0-4 2 2 0 0 0 0 4zm-3 4h6a3 3 0 0 0-6 0z"/></symbol><symbol viewBox="0 0 24 24" id="arrow-down-s-line"><path fill="none" d="M0 0h24v24H0z"/><path d="M12 13.172l4.95-4.95 1.414 1.414L12 16 5.636 9.636 7.05 8.222z"/></symbol><symbol viewBox="0 0 24 24" id="arrow-up-s-line"><path fill="none" d="M0 0h24v24H0z"/><path d="M12 10.828l-4.95 4.95-1.414-1.414L12 8l6.364 6.364-1.414 1.414z"/></symbol><symbol viewBox="0 0 24 24" id="star-line"><path fill="none" d="M0 0h24v24H0z"/><path d="M12 18.26l-7.053 3.948 1.575-7.928L.587 8.792l8.027-.952L12 .5l3.386 7.34 8.027.952-5.935 5.488 1.575 7.928L12 18.26zm0-2.292l4.247 2.377-.949-4.773 3.573-3.305-4.833-.573L12 5.275l-2.038 4.42-4.833.572 3.573 3.305-.949 4.773L12 15.968z"/></symbol><symbol viewBox="0 0 24 24" id="star-fill"><path fill="none" d="M0 0h24v24H0z"/><path d="M12 18.26l-7.053 3.948 1.575-7.928L.587 8.792l8.027-.952L12 .5l3.386 7.34 8.027.952-5.935 5.488 1.575 7.928z"/></symbol><symbol viewBox="0 0 24 24" id="snowy-fill"><path fill="none" d="M0 0h24v24H0z"/><path d="M6.027 17.43A8.003 8.003 0 0 1 9 2a8.003 8.003 0 0 1 7.458 5.099A5.5 5.5 0 0 1 18 17.978a6 6 0 0 0-11.973-.549zM13 16.267l1.964-1.134 1 1.732L14 18l1.964 1.134-1 1.732L13 19.732V22h-2v-2.268l-1.964 1.134-1-1.732L10 18l-1.964-1.134 1-1.732L11 16.268V14h2v2.268z"/></symbol><symbol viewBox="0 0 24 24" id="mail-line"><path fill="none" d="M0 0h24v24H0z"/><path d="M3 3h18a1 1 0 0 1 1 1v16a1 1 0 0 1-1 1H3a1 1 0 0 1-1-1V4a1 1 0 0 1 1-1zm17 4.238l-7.928 7.1L4 7.216V19h16V7.238zM4.511 5l7.55 6.662L19.502 5H4.511z"/></symbol><symbol viewBox="0 0 24 24" id="shield-check-fill"><path fill="none" d="M0 0H24V24H0z"/><path d="M12 1l8.217 1.826c.457.102.783.507.783.976v9.987c0 2.006-1.003 3.88-2.672 4.992L12 23l-6.328-4.219C4.002 17.668 3 15.795 3 13.79V3.802c0-.469.326-.874.783-.976L12 1zm4.452 7.222l-4.95 4.949-2.828-2.828-1.414 1.414L11.503 16l6.364-6.364-1.415-1.414z"/></symbol><symbol viewBox="0 0 24 24" id="menu-5-line"><path fill="none" d="M0 0h24v24H0z"/><path d="M18 18v2H6v-2h12zm3-7v2H3v-2h18zm-3-7v2H6V4h12z"/></symbol><symbol viewBox="0 0 24 24" id="map-pin-2-fill"><path fill="none" d="M0 0h24v24H0z"/><path d="M18.364 17.364L12 23.728l-6.364-6.364a9 9 0 1 1 12.728 0zM12 13a2 2 0 1 0 0-4 2 2 0 0 0 0 4z"/></symbol><symbol viewBox="0 0 24 24" id="arrow-right-line"><path fill="none" d="M0 0h24v24H0z"/><path d="M16.172 11l-5.364-5.364 1.414-1.414L20 12l-7.778 7.778-1.414-1.414L16.172 13H4v-2z"/></symbol></svg>