<svg id="katman_1" data-name="katman 1" xmlns="http://www.w3.org/2000/svg" viewBox="0 0 125 125"><defs><style>.cls-1{fill:#fff;}.cls-2{fill:#005497;fill-rule:evenodd;}</style></defs><rect class="cls-1" width="125" height="125"/><path class="cls-2" d="M704.37,406.09c-1.35-.22-2.55-.28-2.55-1a1,1,0,0,1,.43-.77,2.58,2.58,0,0,1,1.25-.25,1.59,1.59,0,0,1,1.11.49,1.68,1.68,0,0,1,.39.84h2.19a2.71,2.71,0,0,0-1-2,4.16,4.16,0,0,0-2.48-1,4.58,4.58,0,0,0-2.75.56,2.83,2.83,0,0,0-1.22,2.1,3.06,3.06,0,0,0,.13,1.24,4.34,4.34,0,0,0,1.12,1.2,15,15,0,0,0,2.66.66c.6.14,1.34.18,1.51.78a.8.8,0,0,1-.35.91,2.42,2.42,0,0,1-1.31.36,1.72,1.72,0,0,1-1.33-.5,4,4,0,0,1-.54-1.08h-2.18a3.67,3.67,0,0,0,1.29,2.54,4.19,4.19,0,0,0,2.73.81,5,5,0,0,0,2.88-.72,3,3,0,0,0,1.12-2.32,2.72,2.72,0,0,0-.51-1.65,3.82,3.82,0,0,0-2.57-1.18Z" transform="translate(-620.33 -321.96)"/><polygon class="cls-2" points="55.59 89.74 57.81 89.74 57.81 80.55 55.59 80.55 55.59 89.74 55.59 89.74 55.59 89.74"/><polygon class="cls-2" points="55.59 79.93 57.82 79.93 57.82 77.72 55.59 77.72 55.59 79.93 55.59 79.93 55.59 79.93"/><path class="cls-2" d="M672.7,403.73a5.16,5.16,0,0,0-3-1.12h-.12a4.61,4.61,0,0,0,0,9.22h.12a4.34,4.34,0,0,0,3-1.27h0l0,1.14h2.1v-12h-2.1v4.06Zm-3,6.21h0a2.74,2.74,0,1,1,0-5.48h0a2.74,2.74,0,0,1,0,5.48Z" transform="translate(-620.33 -321.96)"/><path class="cls-2" d="M686.44,403.69a5.15,5.15,0,0,0-3-1.11h-.11a4.62,4.62,0,1,0,0,9.23h.11a4.44,4.44,0,0,0,3-1.28h0v1.13h2.1v-12h-2.1l0,4Zm-3,6.23a2.74,2.74,0,1,1,2.76-2.75,2.76,2.76,0,0,1-2.76,2.75Z" transform="translate(-620.33 -321.96)"/><path class="cls-2" d="M662,402.51v.87h0a2.35,2.35,0,0,0-1.11-.79,5.31,5.31,0,0,0-1.64-.32h-.1a4.9,4.9,0,0,0-1.89.34,4.5,4.5,0,0,0-1.51,1.08,5.35,5.35,0,0,0-1,1.53,5.13,5.13,0,0,0-.33,1.8,4.75,4.75,0,0,0,4.81,4.86h0a5.07,5.07,0,0,0,1.66-.35,2.12,2.12,0,0,0,1.08-.65h0v.83h2.14l0-9.2Zm-2.74,7.28h0a2.72,2.72,0,1,1,0-5.44h0a2.72,2.72,0,1,1,0,5.44Z" transform="translate(-620.33 -321.96)"/><path class="cls-2" d="M696.79,402.48v.87h0a2.79,2.79,0,0,0-1.11-.79,5.76,5.76,0,0,0-1.64-.31H694a5,5,0,0,0-1.88.33,4.26,4.26,0,0,0-1.51,1.08,4.43,4.43,0,0,0-1,1.54,5.14,5.14,0,0,0-.34,1.8,4.73,4.73,0,0,0,1.39,3.47,4.66,4.66,0,0,0,3.43,1.37,4.51,4.51,0,0,0,1.66-.34,2.05,2.05,0,0,0,1.09-.66h0v.84l2.14,0,0-9.18Zm-2.74,7.3a2.73,2.73,0,1,1,2.74-2.74,2.76,2.76,0,0,1-2.74,2.74Z" transform="translate(-620.33 -321.96)"/><path class="cls-2" d="M709.3,397.62h0a2.58,2.58,0,1,0,0,5.16h0a2.58,2.58,0,0,0,0-5.15Zm0,4.74a2.15,2.15,0,1,1,2.17-2.14,2.15,2.15,0,0,1-2.17,2.14Z" transform="translate(-620.33 -321.96)"/><path class="cls-2" d="M710.06,400.63a1.42,1.42,0,0,0-.32-.25.8.8,0,0,0,.56-.28.67.67,0,0,0,.2-.49,1.12,1.12,0,0,0-.13-.46.81.81,0,0,0-.33-.26,2,2,0,0,0-.66-.07h-1.19v2.81h.57v-1.18h.1a1,1,0,0,1,.29,0c.07,0,.1,0,.15.1s0,0,0,0a1.83,1.83,0,0,1,.31.39h0l.41.63h.67l-.34-.55h0a3.45,3.45,0,0,0-.31-.45Zm-.76-.63h-.54v-.7h.85a.32.32,0,0,1,.22.1.27.27,0,0,1,.08.22.31.31,0,0,1-.07.22l-.14.12a2.57,2.57,0,0,1-.4,0Z" transform="translate(-620.33 -321.96)"/><path class="cls-2" d="M677.39,391.86h-9.65a30.74,30.74,0,0,0,10.09,3.76h0l-.44-3.76Zm7.35,0-.58,3.53h0a31.5,31.5,0,0,0,10.21-3.53h-9.63Zm-1.11,0h-5.3A18.28,18.28,0,0,0,681.1,396a19,19,0,0,0,2.53-4.1Zm14.26-2.35H664.16a13.45,13.45,0,0,1-2.79-2.55h39.35a22.35,22.35,0,0,1-2.83,2.56Zm5-5.49-43.59,0h0a17.8,17.8,0,0,1-1.67-2.86h46.92a15.75,15.75,0,0,1-1.66,2.84Zm-31.2-5.93H656.5a34.86,34.86,0,0,1-2.69-10.67c7.84,1.4,13.89,4.62,17.91,10.66Zm15.6,0H674.8c-.28-8.05,2-16.22,6.26-21.14,4.38,4.79,6.65,12.93,6.26,21.14Zm18.55,0H690.35c4.29-6,10.44-9.44,18.41-10.65a35.34,35.34,0,0,1-2.89,10.64Z" transform="translate(-620.33 -321.96)"/></svg>