<svg id="katman_1" data-name="katman 1" xmlns="http://www.w3.org/2000/svg" viewBox="0 0 125 125"><defs><style>.cls-1{fill:#fff;}.cls-2{fill:#1e76b6;}</style></defs><rect class="cls-1" width="125" height="125"/><rect class="cls-2" x="2.52" y="47.5" width="119.97" height="30"/><path class="cls-2" d="M636.29,380h-1.56v9h1.58c3,0,4.42-1.39,4.42-4.54,0-2.88-1.55-4.49-4.44-4.49" transform="translate(-620.33 -321.96)"/><path class="cls-1" d="M636.31,389h-1.58v-9h1.56c2.89,0,4.44,1.61,4.44,4.49,0,3.15-1.42,4.54-4.42,4.54m8.22-6a7.51,7.51,0,0,0-2.24-4.58c-1.68-1.58-3.46-1.91-6-1.91H630.8v15.95h6c2.26,0,3.76-.3,5.48-2a7.61,7.61,0,0,0,2.22-4.46v6.35h8.74V389h-4.88v-3h4.22V382.6h-4.22V380h4.88v-3.51h-8.74Z" transform="translate(-620.33 -321.96)"/><path class="cls-1" d="M671.29,386.77h-2l2-3.61Zm-6.16-.09a4.67,4.67,0,0,1-3.59,2.13,4.32,4.32,0,0,1-4.23-4.45,4.24,4.24,0,0,1,4.14-4.25,5.16,5.16,0,0,1,3.39,1.56,5,5,0,0,1,1,1.12l2.1-3.71a7.58,7.58,0,0,0-1-.93,8.3,8.3,0,0,0-5.42-2,8,8,0,0,0-6.63,3.34,7.76,7.76,0,0,0-1.64,4.9,8.37,8.37,0,0,0,2.11,5.66,8.66,8.66,0,0,0,6.07,2.78,8.78,8.78,0,0,0,4.77-1.48,8.55,8.55,0,0,0,1.39-1.21h3.68v2.32h3.76V376.49h-4.12Z" transform="translate(-620.33 -321.96)"/><polygon class="cls-1" points="55.47 58.3 58.44 58.3 58.44 70.56 62.37 70.56 62.37 58.3 65.41 58.3 65.41 54.6 55.47 54.6 55.47 58.3"/><polygon class="cls-1" points="74.05 60.66 70.03 60.66 70.03 54.6 66.11 54.6 66.11 70.56 70.03 70.56 70.03 64.46 74.05 64.46 74.05 70.56 78.01 70.56 78.01 54.6 74.05 54.6 74.05 60.66"/><path class="cls-1" d="M713.66,388.86a4.37,4.37,0,0,1-4.22-4.44,4.21,4.21,0,1,1,4.22,4.44m17.28-3.43-5.89-8.87H721.5v5.38a8.41,8.41,0,0,0-2.08-3.33,8.21,8.21,0,0,0-5.74-2.35,8.11,8.11,0,0,0-5.85,2.34,7.94,7.94,0,0,0-2.44,5.77,8.53,8.53,0,0,0,1.27,4.63h-3V376.56h-3.91v15.95h8.5v-1.67a8,8,0,0,0,5.41,2,8.16,8.16,0,0,0,7.84-5.73v5.43h3.93v-8.89l6,8.89h3.44V376.56h-3.92Z" transform="translate(-620.33 -321.96)"/></svg>