<svg id="katman_1" data-name="katman 1" xmlns="http://www.w3.org/2000/svg" viewBox="0 0 125 125"><defs><style>.cls-1{fill:#fff;}.cls-2{fill:#d62b2b;fill-rule:evenodd;}</style></defs><rect class="cls-1" width="125" height="125"/><path class="cls-2" d="M674,377.44c1.66,0,4.54-.9,5.1.49.68,1.69-1.52,2.6-2.26,3.4-1.38,1.47-2.13,3.35-4.21,4.21a18.08,18.08,0,0,1-1.86.48c-2.9,7.49-5.65,15.13-8.34,23.15-.37,1.11-.63,2.69-1.7,2.75s-1.39-1.07-1.94-1.62c-1-1-2.6-1.73-2.83-2.91a7,7,0,0,1,.48-2.75C658,399,660.19,393.25,662,388c-3.19.54-6.7,1.46-10,2.11-2,5.09-3.91,10.41-5.83,15.86-.36,1-1.41,4.47-3.48,3.56-1.49-.65,0-4,.25-4.85,1.65-4.75,3.34-9.41,5.09-13.92a15.69,15.69,0,0,1-1.78-.65c-1.11-.67-1.66-2.1-2.67-2.75a10.63,10.63,0,0,1-1.62-.81,1.66,1.66,0,0,1-.72-1.62c.14-.67,1.49-1,2.18-1.21,2.68-.81,5.33-1.45,8-2.11,2.58-6.41,5.31-13.41,8-20a14,14,0,0,1,1.21-2.75c.44-.6,1.88-1.75,2.91-1.05.77.52.23,2.33-.08,3.07-2.67,6.57-5.32,13.09-7.85,19.67,3.28-.66,6.55-1.33,9.88-1.94,2.18-5.49,4.9-12,7.36-17.73.41-.95.72-1.85,1.38-2.18a14.12,14.12,0,0,1,1.45-.41c.48-.14,1-.33,1.38-.48a11.32,11.32,0,0,1,2.75-.89c3-.25.39,4.51,0,5.5C677.84,367.57,676,372.5,674,377.44Z" transform="translate(-620.33 -321.96)"/><path class="cls-2" d="M676.2,395.33c.12.74.47,1.25.56,2,.65-.08,1.21-1.3,2.43-.81,1.08,1.48-.54,3.12-1.29,4,.25.86,1,2,.4,3a1.41,1.41,0,0,1-2-1.13,6.65,6.65,0,0,1-2.43,1.3,3.22,3.22,0,0,1-4-3.4c-.06-3,2.4-4.43,3.64-6.15a7.75,7.75,0,0,1-.65-3.32,3.14,3.14,0,0,1,3.64-2.67,2.59,2.59,0,0,1,2.19,3.07C678.47,393.06,677,393.89,676.2,395.33Zm-1-3c.31.13.48-.33.64-.56s.56-.55.41-1C675.4,389.76,674.74,391.38,675.23,392.33Zm-1.78,7.53c.06,0,.16,0,.16.08a2.15,2.15,0,0,0,1.45-.89c-.22-.53-.25-1.26-.64-1.62C674.05,398.13,673,398.9,673.45,399.86Z" transform="translate(-620.33 -321.96)"/><path class="cls-2" d="M714,371.21c-4.83,9.8-9.37,20.66-13.59,31.64-.51,1.31-1,4.11-2.35,4.13-.88,0-1.39-1.18-1.94-1.86-.92-1.12-2.13-2-2.59-3.32-.69-1.91-.52-4.8-.41-7.2.33-7.14,1.29-14.68,1.7-21.45-3.65,10.88-7.06,21.85-10.36,33.18-.41,1.43-1,3.76-2.91,3.24s0-5.21.24-6.15c3.59-12.8,7.3-24.92,11.57-37.06.31-.88.67-1.94,1.06-3a12.35,12.35,0,0,1,1.21-2.83c.78-1,2.39-1.21,3.89-1.86.91-.4,3.44-1.71,4.45-.81.62.56.29,3,.16,4.53-.92,10.87-3.2,19.9-3.4,31.56,2.46-6,4.7-11.89,7.61-18.13,1.89-4.07,4.17-8.72,6.23-13.11.69-1.48,1.46-3.19,2.59-3.8a15.68,15.68,0,0,1,1.7-.49c1.32-.45,2.78-1.33,4-1.37a1.55,1.55,0,0,1,1.3.4c.61.77,0,2.75-.16,3.56-3.47,14.53-6.13,29.3-9.15,44.52-.21,1.09-.47,2.06-.73,3.39s-.3,2.81-1.13,3c-1.41.32-2.09-1.37-2.91-2.11s-2.46-1.4-2.67-2.5a9.7,9.7,0,0,1,.24-2.43C709.36,393.46,711.91,382.27,714,371.21Z" transform="translate(-620.33 -321.96)"/></svg>