<svg id="katman_1" data-name="katman 1" xmlns="http://www.w3.org/2000/svg" viewBox="0 0 125 125"><defs><style>.cls-1{fill:#fff;}.cls-2{fill:#b02912;fill-rule:evenodd;}</style></defs><rect class="cls-1" width="125" height="125"/><path class="cls-2" d="M667.93,376.47c-1.65-.91-3.64-1.4-7.52-1.4h-6.74v18.78h6.5c4.23,0,6.53-.56,8.32-1.68a8.83,8.83,0,0,0,3.77-7.71,9,9,0,0,0-4.33-8Zm-4.44,11.76a5,5,0,0,1-2.62.49h-.52V380.2h.41a5,5,0,0,1,2.87.59,4.38,4.38,0,0,1,1.61,3.7,4.16,4.16,0,0,1-1.75,3.74Z" transform="translate(-620.33 -321.96)"/><polygon class="cls-2" points="89.27 60.54 89.27 57.61 98.46 57.61 98.46 53.11 82.6 53.11 82.6 71.89 98.71 71.89 98.71 67.49 89.27 67.49 89.27 64.56 96.47 64.56 96.47 60.54 89.27 60.54 89.27 60.54 89.27 60.54"/><polygon class="cls-2" points="2.5 53.11 2.5 71.89 9.31 71.89 9.31 53.11 2.5 53.11 2.5 53.11 2.5 53.11"/><polygon class="cls-2" points="53.85 53.11 53.85 71.89 60.66 71.89 60.66 53.11 53.85 53.11 53.85 53.11 53.85 53.11"/><polygon class="cls-2" points="18.93 64.68 30.43 72.5 30.43 53.09 23.75 53.09 23.75 60.18 12.25 52.5 12.25 71.87 18.93 71.87 18.93 64.68 18.93 64.68 18.93 64.68"/><polygon class="cls-2" points="63.09 53.11 63.09 58.42 68.68 58.42 68.68 71.89 75.35 71.89 75.35 58.42 81.23 58.42 81.23 53.11 63.09 53.11 63.09 53.11 63.09 53.11"/><polygon class="cls-2" points="111.46 67.18 114.47 71.89 122.5 71.89 115.55 62.47 122.47 53.11 114.43 53.11 111.46 57.69 108.49 53.11 100.45 53.11 107.37 62.5 100.42 71.89 108.45 71.89 111.46 67.18 111.46 67.18 111.46 67.18"/></svg>