<svg id="katman_1" data-name="katman 1" xmlns="http://www.w3.org/2000/svg" viewBox="0 0 125 125"><defs><style>.cls-1{fill:#fff;}.cls-2{fill:#00562c;}.cls-2,.cls-3,.cls-4{fill-rule:evenodd;}.cls-3{fill:#e00637;}.cls-4{fill:#13110d;stroke:#1d1d1b;stroke-miterlimit:2.41;stroke-width:0.57px;}</style></defs><rect class="cls-1" width="125" height="125"/><path class="cls-2" d="M686.1,362.11a2.59,2.59,0,0,1-.41-.87c0-.32,0-.78.46-.83s.51.39.47.87a1.34,1.34,0,0,1-.52.83Zm-2.35,1c.4,0,.43-.45.47-.73s.24-1.5-.51-1.5-.63.8-.41,1.27.15.91.45,1Zm-3.47,1.14c.51,0,.63-1,.64-1.2s.22-1.53-.58-1.55-.46,1.16-.39,1.52-.09,1,.33,1.23ZM677,365c.35,0,.55-.48.64-1s.27-1.87-.58-1.87-.53,1.21-.43,1.49,0,1.41.37,1.43Zm-3.35.82c.37,0,.67-.85.74-1.13s.22-1.75-.6-1.81c-.6-.05-.58.62-.49,1.1,0,.18.09.34.11.43a3.85,3.85,0,0,1,0,.84c0,.28,0,.53.24.57Zm-3.24.94c.32,0,.78-.75.8-1.47s-.12-1.6-.94-1.5c-.42.05-.44.43-.35.84a6.2,6.2,0,0,1,.27,1.67c0,.24.06.45.22.46Zm-3,.91c.48,0,.76-1,.75-1.45s-.27-1.42-.86-1.35-.6.58-.36,1.08.08,1.64.47,1.72Zm-2.61,1c.38,0,.69-.87.64-1.47s-.36-1.47-1-1.3-.4,1-.19,1.49.21,1.19.58,1.28Zm-2.94,1.48c.28,0,.69-.75.65-1.48s-.36-1.3-1-1.2-.53,1.09-.28,1.43.12,1.08.59,1.25Zm-2.3,1.61c.15,0,.3-.17.42-.42a2.27,2.27,0,0,0,0-1.79c-.12-.32-.32-.55-.7-.48-.74.13-.36,1-.23,1.23s0,1.34.46,1.46Zm.92-5.44c.27.14.57-.46.73-.62s.63-.68.19-.95-1.21.84-.92,1.57Zm-1.92.91c.32-.09.32-.66.49-.89s.22-.83-.22-1-.86.7-.78,1.18.19.65.51.67Zm-1.25.57c-.44,0-.72.68-.69,1.17s.45.92.88.81.31-.82.14-1.08.16-.78-.33-.9Zm0,6c.51,0,.63-1.21.59-1.67s-.4-1.26-1.07-1c-.45.15-.42.54-.3.84.26.6.32.19.4,1,0,.34,0,.7.38.83Zm-1.71-6c-.28-.14-1,.57-1.13.88s-.18.68.22.79.67-.44.72-.77.53-.65.19-.9Zm-.47,2.94c-.28,0-.59.68-.62,1.1s.21.72.56.68.5-.51.36-1,.06-.78-.3-.82Zm-2-.58c-.35-.19-1.12.57-1.12,1.34s.48,1,.83,1,.52-.51.38-.86.2-1.23-.09-1.45Zm-2,2.23a1.07,1.07,0,0,0-.62,1.23.61.61,0,0,0,.82.47c.12,0,.5-.3.23-.9s0-.76-.43-.8Zm2.48.89c-.38-.12-.86.79-.87,1.28a.8.8,0,0,0,.87.9c.59,0,.63-.67.42-1.2s0-.88-.42-1Zm-3.78,1.58c-.35.15-.42.83-.22,1.48a.67.67,0,0,0,1.16.34c.34-.34,0-1-.27-1.31s-.35-.53-.67-.51Zm.05,2.45c-.42.08-.48.85-.38,1.38a.71.71,0,0,0,.91.66c.53-.06.65-.73.28-1.22s-.36-.84-.81-.82Zm2.14-1c-.4,0-.54.86-.44,1.33a.7.7,0,0,0,1,.58c.54-.14.35-.85.08-1.09s-.21-.76-.61-.82Zm1.61.59a1.6,1.6,0,0,0,.17.62.52.52,0,0,0,.8.16c.35-.3,0-.83-.13-1-.36-.32-.87-.41-.84.2Zm2-.42c-.27.16-.16.84.18,1a.67.67,0,0,0,.92-.11c.27-.28,0-.75-.34-.93a.88.88,0,0,0-.76,0Zm-3.92,3.2c-.14.24.15.74.61.83s.7-.06.77-.32-.17-.55-.57-.67-.75,0-.81.16Zm2.71-1.37c-.36.16-.13.89.15,1.17a.9.9,0,0,0,1.22.11c.4-.37,0-.93-.38-1.1s-.81-.31-1-.18Zm-.28,2.28a1.38,1.38,0,0,0,.42.67.61.61,0,0,0,.83.06c.15-.16.06-.55-.32-.81a1.78,1.78,0,0,0-.47-.28c-.29-.1-.52,0-.46.36Zm2.89-2.08c-.43.28-.24.86.07,1.25a.79.79,0,0,0,1.19.05c.34-.34,0-.9-.26-1.15a.87.87,0,0,0-1-.15Zm1-1.52c-.06.4.34.69.84.77a.59.59,0,0,0,.73-.53.74.74,0,0,0-.76-.65c-.6,0-.81.25-.81.41Zm.08,4.31c0-.22-.23-.45-.73-.63s-.88.12-.85.47a.68.68,0,0,0,.73.59c.42,0,.88-.11.85-.43Zm1.44-1.23c0,.36.39.69.79.73a.61.61,0,0,0,.7-.53c.06-.35-.22-.62-.72-.65s-.73.21-.77.45Zm.36-1.89c-.11.47.25.72.78.76s.81-.18.9-.47-.3-.58-.89-.63-.78.23-.79.34Zm-1.25,4.56c.16.44.59.5,1.17.29s.82-.58.68-.92-.79-.44-1.37-.2a.67.67,0,0,0-.48.83Zm2.89.34c.13.44.72.27,1.1.15s.68-.43.53-.76-.64-.28-1.13-.16a.57.57,0,0,0-.5.77Zm1.31-2.39c0,.43.74.35,1.07.31s.65-.18.6-.66-1.56-.46-1.67.35Zm2,2.63c.25.46.78.27,1.17.1s.59-.56.39-.87-1.78-.21-1.56.77Zm-3.59-6.93c0,.47.34.56.76.63s.66-.11.68-.35.07-.66-.65-.68-.79.29-.79.4Zm2,1.8c0,.65,1,.52,1.35.45a.69.69,0,0,0,.58-.84c-.08-.44-1.9-.7-1.93.39Zm1-2.51c0,.44.35.52.85.52s.77-.16.77-.55-.35-.57-.89-.55-.74.3-.73.58ZM667,377c0,.45.55.55,1,.55s.83-.13.8-.52-.37-.53-1-.55-.77.42-.74.52Zm-.87,2.12c0,.57.53.56,1,.57a.7.7,0,0,0,.79-.63c0-.36-.56-.43-1.11-.36s-.64.26-.66.42Zm-.42,1.95c0,.47.76.47,1,.46s.67,0,.68-.47-1.62-.52-1.72,0Zm3.39,0c0,.41.6.53,1.05.47s.79-.21.74-.6-.59-.45-1.26-.34-.53.47-.53.47Zm.25-2.33c0,.46.56.71,1,.7s.69-.19.71-.6-1.44-1-1.68-.1Zm.66-1.88c0,.42.55.42,1,.38s.62-.28.52-.67-1.55-.38-1.51.29Zm-1.52,6.39c0,.42.45.49.94.4s.84-.32.82-.76-.68-.43-1.1-.34-.72.27-.66.7Zm-.11-8c0,.43.34.49.85.52s.68-.14.71-.42-1.27-1.14-1.56-.1Zm2.65-.73c-.07.43.39.58.79.62s.65-.07.71-.39-.27-.62-.66-.7-.88.14-.84.47Zm1.82,2c-.17.7.78.82,1,.83s.73.08.86-.35-1.53-1.24-1.81-.48Zm1.6-2.51c-.38.17-.18.89.08,1.32a.61.61,0,0,0,1,.12c.29-.32-.22-1.47-1.1-1.44Zm-1.77,5.12c0,.54.73.5,1.28.41s.66-.38.64-.69-.59-.42-1.18-.31-.73.4-.74.59Zm.29,1.82c0,.45.84.34,1.3.26s.81-.22.79-.61-.88-.48-1.42-.24-.66.44-.67.59Zm-1.24,2.37c.17.48.61.43,1.13.17a.75.75,0,0,0,.45-1c-.16-.29-2-.1-1.58.84Zm5.51-9.22c-.43.4.2.95.39,1.08a.73.73,0,0,0,1,0c.33-.35-.58-1.55-1.37-1.07Zm2.8,0c-.42.27,0,.91.36,1.28a.66.66,0,0,0,1,0c.25-.28-.49-1.51-1.39-1.25Zm-4.16,2.55c-.12.61.82.7,1.13.75a.64.64,0,0,0,.8-.53c.06-.46-1.7-1-1.93-.22Zm.23,2.28c0,.56.7.45,1.09.42s.62-.26.62-.47-.51-.41-1-.37-.7.19-.69.42Zm.4,2.52c.07.43.86.29,1.2.19s.65-.37.56-.74-2.07-.18-1.76.55Zm2.84-5c-.23.45.4.72.89.8a1.31,1.31,0,0,0,.43,0,.45.45,0,0,0,.23-.75c-.35-.34-1.23-.61-1.55-.07Zm3.81-2c-.28.48.28.76.88.9s.82,0,.91-.37-1.15-1.11-1.79-.53Zm-.6,2c-.19.57.48.77,1,.8s.78-.15.83-.52-1.42-.95-1.78-.28Zm-3,2.47c0,.45.48.58,1.1.46a.62.62,0,0,0,.54-.86c-.11-.23-1.54-.2-1.64.4Zm.18,2.47c.14.45.81.31,1.14.06s.64-.59.47-1-1.91.45-1.61.94Zm3-2.61c.08.42.45.39,1,.31s.51-.5.45-.77-1.39-.48-1.43.46Zm0,2.49c.29.32.85.16,1.2-.21s.41-.71.25-1-.92,0-1.19.37-.36.54-.26.81Zm6.55-3.91c.23-.34-.09-.75-.41-.85s-1-.07-1,.33.52.68.83.7.53-.06.56-.18Zm-1.52,1.88c-.06.33.22.58.66.62s.46-.19.54-.35-.7-.95-1.2-.27Zm2.2,2.34a.39.39,0,0,0-.77.06.81.81,0,0,0,0,.22c.13.94-.08,1.29,1.05,2,.51.27.81-.43.31-.69-.74-.39-.48-.94-.59-1.57Zm7.87-5.76c.2.31,1.26.24,1.8.15a.82.82,0,0,0,.71-1.17c-.25-.66-1.33-.36-1.78-.13s-.95.72-.73,1.15Zm-28.77,8.63c.3.29-.12.58-.28.8s.26.91,0,1.21-1.15-.22-1.57.16-.18,1.44-.6,1.66-1.38-.15-1.71,0-.13.94-.47,1.14-1-.23-1.46.1-.91.69-1.17.4.16-1.09.72-1.33a3.92,3.92,0,0,1,1.22-.16c.1-.05.18-.92.57-1.17s1.4,0,1.55-.07,0-.94.57-1.35,1.29-.19,1.38-.32a3.36,3.36,0,0,1,.42-.84c.26-.31.69-.46.87-.28ZM704.11,374c.14-.24-.67-1-1.42-.95s-.83.58-1.48.57-.79-.94-2.74-.69-2.29,1.43-3,1.72-1.41-.29-2.33.13a3.72,3.72,0,0,1-2.51.67c-1.21-.15-2.32-1-3.11-1.15s-1.69,0-2.55-.17-1.43-.88-2.64-.88a8.44,8.44,0,0,1-2.63-.1,3.85,3.85,0,0,0-1.72-.44,3.62,3.62,0,0,1-1.5,0,3.43,3.43,0,0,0-1.88-.17c-.8.15-1,.53-1.43.53s-.81-.21-1.1-.15a2.91,2.91,0,0,1-.58.1,2,2,0,0,0-.79.12c-.23.13-.49.52-.85.55a15,15,0,0,0-1.8,0c-.46.1-.83.47-1.23.49a14.9,14.9,0,0,0-1.81,0c-.64.08-.46.57-.79.61s-.43-.07-.84.05-.58.38-.9.38a6.16,6.16,0,0,0-1.73.09c-.46.17-1.51,1.14-2.12.35s.54-2.57,3.67-4.16,8.74-3.3,16.4-4.87,10.69-6.21,11.19-7,1.36-2.39.75-2.54-.48.76-1.23,1.07-1.28,0-1.74.21-.57.73-1.09.82-1-.26-1.32-.07-.81.73-1.17.8-1-.8-1.48-.65-.9,1.11-1.55,1.17-1.21-.69-1.76-.52-1,1.29-1.52,1.4-.82-.88-1.8-.67-1,1.21-1.74,1.3-.71-1-1.52-.76-1.26,1.3-1.8,1.34-.67-.63-1.28-.62-1.46,1.17-2,1.25-1.17-.73-1.75-.73-1,.9-1.38.9a5.7,5.7,0,0,0-2.49-.07c-.84.34-.75.8-1.11,1s-1.53-.24-2.51.29-.63,1.17-1.53,1.65-1.33,0-2,.5-.38,1.38-.71,1.53-1.3,0-1.88.6-.38,1.18-.72,1.61-1.73,1.13-2.4,2.45-.29,2.32-.65,2.91a2.49,2.49,0,0,0-.48,2.09,5.6,5.6,0,0,1,0,2.7,18.44,18.44,0,0,0-.75,4c-.07,1.63.16,3.1,1,4s1.63,1,1.74.82-.05-.81.21-1.3a3.67,3.67,0,0,1,.81-1.08c.19-.14.53-.34.71-.11s0,.5-.28.79-.76.65-.78,1.25.18,1.43,0,1.53a1.93,1.93,0,0,0-1.14,1.83,3,3,0,0,0,1.48,2.28c.58.41,1.43,1.45,1.72,1.41s.25-1.16.84-1.25,1.23,1.11,1.93.87.35-1.6.88-1.86,1.68.92,2.07.78.09-1.6.36-2,.69-1-.32-1.91a4.3,4.3,0,0,0-2.38-1c-.19,0-.73.14-.8-.08s.2-.69.48-1a4,4,0,0,0,.25-3.38,2.35,2.35,0,0,0-3.22-1.59,3.85,3.85,0,0,0-1.66,1.11c-.18.19-.51.44-.74.18s0-.52.25-.8a4.89,4.89,0,0,1,3.49-1.44c1.84.1,3.16,2.3,3,4.13s-.72,2-.5,2.2,1.35-.27,2.45,1,1,1.9,3,2.15,4.94.52,5.88-.58a19,19,0,0,1,2.72-3.27,9.26,9.26,0,0,1,5.89-2.11,12.75,12.75,0,0,1,2.23.1c.35.07.41.3.37.59s-.55.22-1.21.21a10.92,10.92,0,0,0-4.07.43,8.13,8.13,0,0,0-4.11,3.37c-.69,1.42-.54,2.13.1,2.61s1.54.28,1.74.66-.27,1.41,0,1.9,1.42,1.56,1.73,1.48,1.13-1.4,1.44-1.39,1.23,1.16,1.67,1.07.31-1.61.87-1.64.9,1.24,1.66,1.09.89-1.54,1.29-1.58.44.56,1,.46.6-2.06-.18-3.19a5.47,5.47,0,0,0-2.86-1.74,10.25,10.25,0,0,0-2.58-.19c-.35,0-.67-.15-.66-.54s.26-.51,1.07-.48a12.55,12.55,0,0,1,3.49.44c1,.38,1.25.91,2.44.93s2.26,0,3.71.11,4.3,1,7.13,0a22.86,22.86,0,0,1,5.08-1.48c1-.1,1.09-.09,1.09-.23s-.73-.13-1.44-.29-2.16-.52-1.95-1.16.92-.3,3.43.5,8,1.17,12.92,1.21,5.71-1.36,5.94-1.63.54-1.3-.23-1.65S717,385,716.7,385s-.59.62-1,.56-.43-.81-.64-.87-.35.39-.66.29-.2-.59-.47-.69-.44.31-.63.28-.3-.93-.6-1-.3.46-.7.42-.07-.82-.51-.83-.52.62-.84.5-.29-1.16-.61-1.23-.66.83-1.3.71-.25-1.13-.55-1.25-1,.86-1.32.7-.1-.46-.26-.62-.77.48-1.71-.11-1-1.5-1.24-1.58a1.69,1.69,0,0,0-.51,0c.16.5.26,1.06.41,1.5.35,1,1.88,1.55,3.26,1.92s5.87,1.85,6.79,2.09,1.56.55,1.42.86-.67.26-1.22.23-.66-.4-1-.41-.42.23-.85.19-.76-.49-1.07-.57-.47.35-.89.24-.68-.85-1-.86-.08.43-.9.45-.81-.94-1.15-1-.56.54-1.1.48-.6-1-1.07-1.19-.45.22-.82.44a3.79,3.79,0,0,1-2.16.38,11.65,11.65,0,0,1-3-.81c-.53-.23-2.24-.57-2.23-1s.79-.4,1.39-.29,1.65.88,2,.65-.26-.68-.24-2.4a2,2,0,0,1,.3-1.06,2.62,2.62,0,0,0-1.73-.26c-1.13.21-2.72,2.34-4.33,2.45s-2.49-.34-2.78-1.65a3.79,3.79,0,0,1,1-2.84c.19-.23.9-.75,1.18-.41s-.32.88-.45,1-1.15,1.48-.65,2.28a1.74,1.74,0,0,0,2.52.26c.9-.61,2.17-1.81,3.28-2.07a4.83,4.83,0,0,1,3.06.42h0l0,0h0l0,0h0l0,0h0l0,0h0l0,0h0c.66.47,1.23.54,1.51.31h.13c.14-.16.16-.28.4-.3s.43.51.77.42.45-.66.74-.82.86.49,1.19.28.08-.86.43-.94.83.73,1.16.68.13-.66.43-.71.63,1,1.06.93.22-1.13.63-1.19.54.93,1.06.88.22-1.21.55-1.36.49.54.84.36-.06-1.15.53-1.38.81.78,1.21.62-.21-1.42.38-1.57.75.86,1.12.8,0-1,.36-1.15.55.93,1,.75.11-1.13.32-1.28.45.16.83,0,.42-1.3,0-1.7-1-1.11-3.37-.73-8.7,2.26-9.95,2.57-1.77-.06-1.62-.66,1.1-.12,1.16-.24Z" transform="translate(-620.33 -321.96)"/><path class="cls-3" d="M701.05,379.39a1.92,1.92,0,0,0-1.36,1.86c0,1.72.58,2.18.24,2.4s-1.39-.53-2-.65-1.38-.18-1.39.29,1.7.81,2.23,1a11.65,11.65,0,0,0,3,.81,3.79,3.79,0,0,0,2.16-.38c.37-.22.35-.6.82-.44s.54,1.14,1.07,1.19.77-.5,1.1-.48.34,1,1.15,1,.56-.46.9-.45.59.76,1,.86.59-.31.89-.24.63.53,1.07.57.51-.2.85-.19.43.38,1,.41,1.09.08,1.22-.23-.5-.62-1.42-.86-5.41-1.73-6.79-2.09-2.91-.92-3.26-1.92a11.26,11.26,0,0,0-.71-2.17.53.53,0,0,1-.13.13c-.28.23-.85.16-1.51-.31l-.18-.12Z" transform="translate(-620.33 -321.96)"/><path class="cls-4" d="M648.26,399.63h2.28a.69.69,0,0,1,.69.69v8.57h2.83a.77.77,0,0,1,.69.78V411a.77.77,0,0,1-.69.78h-5.8a.69.69,0,0,1-.69-.69V400.32a.69.69,0,0,1,.69-.69Zm69.23,0a.77.77,0,0,1,.69.77v1.11a.77.77,0,0,1-.69.78h-3.61a.22.22,0,0,0-.22.21v1.68a.22.22,0,0,0,.22.21h2.74a.77.77,0,0,1,.69.78v1.11a.77.77,0,0,1-.69.77h-2.78a.18.18,0,0,0-.18.18V409a.17.17,0,0,0,.18.17h3.65a.77.77,0,0,1,.69.78V411a.77.77,0,0,1-.69.78h-6.8a.69.69,0,0,1-.69-.69V400.32a.69.69,0,0,1,.69-.69Zm-57.63,0h2.61a.86.86,0,0,1,.76.57l3.62,11a.41.41,0,0,1-.39.58h-1.9a.88.88,0,0,1-.77-.58l-.54-1.69h-4l-.53,1.69a.87.87,0,0,1-.76.58h-2a.4.4,0,0,1-.39-.58l3.57-11a.87.87,0,0,1,.76-.57Zm2.41,7-1.07-3.45-1.11,3.5c-.06.2,0,.36.21.36l1.71,0c.33,0,.35-.16.26-.43Zm46.13-7a.77.77,0,0,1,.69.77v1.37a.77.77,0,0,1-.69.78h-2.14c-.15,0-.26.06-.26.21v8.37a.69.69,0,0,1-.69.69H703a.69.69,0,0,1-.69-.69v-8.34c0-.21-.08-.24-.28-.24h-2.12a.77.77,0,0,1-.69-.78V400.4a.77.77,0,0,1,.69-.77Zm-35.67-.15a5.73,5.73,0,0,1,4.13,1.75.42.42,0,0,1,0,.64l-1.3,1.4c-.16.17-.46.3-.61.07a2.28,2.28,0,0,0-2-1.22c-1.44,0-2.73,1.23-2.73,3.47s1.09,3.47,2.73,3.47a2.47,2.47,0,0,0,1.87-.94c.17-.21.37-.45.61-.21l1.38,1.37c.21.21.32.45.11.67a5.83,5.83,0,0,1-4.24,1.75,6.11,6.11,0,0,1,0-12.22Zm10.34,0a6.25,6.25,0,1,1-5.9,6.24,6.07,6.07,0,0,1,5.9-6.24Zm0,2.7c1.51,0,2.74,1.58,2.74,3.54s-1.23,3.54-2.74,3.54-2.73-1.25-2.73-3.54,1.23-3.54,2.73-3.54Zm15.48-.12-1.28,1.1c-.66.52-.88,0-1.07-.11s-1.26-1.33-2.34-1.11-1.2,1.49.31,2.08a16.23,16.23,0,0,1,3.44,1.53,3.23,3.23,0,0,1,1.31,3.31c-.28,1.71-2,3.17-4.84,3.07a5.21,5.21,0,0,1-4.14-1.72.9.9,0,0,1-.1-1.13l1.21-1c.25-.21.66-.19,1.06.23a4.83,4.83,0,0,0,2.29,1.1c1.11.1,1.61-1,.63-1.71a10.14,10.14,0,0,0-2.25-.92c-.63-.27-3-1.12-3.06-3.83s3.29-3.68,5.25-3.45,2.86.84,3.32,1.43.53.89.26,1.17ZM715,395.29v-1.81h.81a1.67,1.67,0,0,1,.45,0,.48.48,0,0,1,.22.18.46.46,0,0,1,.08.28.49.49,0,0,1-.12.34.67.67,0,0,1-.38.17.8.8,0,0,1,.21.15,2,2,0,0,1,.21.29l.24.36h-.46l-.28-.4a1.54,1.54,0,0,0-.21-.26.21.21,0,0,0-.11-.08l-.2,0h-.08v.76Zm.38-1.05h.29a2.08,2.08,0,0,0,.35,0,.28.28,0,0,0,.11-.08.25.25,0,0,0,0-.13.2.2,0,0,0-.06-.15.21.21,0,0,0-.14-.07h-.59v.46Zm.38-1.31a1.45,1.45,0,1,1-1.45,1.45,1.45,1.45,0,0,1,1.45-1.45Zm0-.27a1.73,1.73,0,1,1-1.72,1.72,1.73,1.73,0,0,1,1.72-1.72Z" transform="translate(-620.33 -321.96)"/></svg>