<svg id="katman_1" data-name="katman 1" xmlns="http://www.w3.org/2000/svg" viewBox="0 0 125 125"><defs><style>.cls-1{fill:#fff;}</style></defs><rect class="cls-1" width="125" height="125"/><path d="M649.6,390.63a1.44,1.44,0,1,0,1.41,1.44A1.38,1.38,0,0,0,649.6,390.63Zm0,2.46a1,1,0,0,1,0-2,1,1,0,0,1,0,2Z" transform="translate(-620.33 -321.96)"/><polygon points="43.06 63.63 36.16 63.63 36.94 51 32.46 63.63 26.05 63.63 36.22 35.09 43.04 35.09 42.25 47.89 46.82 35.09 53.23 35.09 43.06 63.63"/><polygon points="43.89 63.63 54.06 35.09 60.47 35.09 50.3 63.63 43.89 63.63"/><path d="M645.64,375.75c-8.95,11.07-17.4,25.81-9.94,32.59,7.23,6.57,16.27,2.68,22.43.09s74.28-33.74,74.28-33.74c.66-.34.54-.78-.29-.56L658,395.28C648.6,398.05,637.92,392,645.64,375.75Z" transform="translate(-620.33 -321.96)"/><path d="M649.84,392.17c.2,0,.35-.12.35-.41s-.23-.47-.62-.47H649v1.55h.37v-.66h.06l.34.66h.42Zm-.24-.25h-.21v-.36h.18c.1,0,.23,0,.23.16S649.73,391.92,649.6,391.92Z" transform="translate(-620.33 -321.96)"/><path d="M714,357a1.44,1.44,0,1,0,1.42,1.44A1.39,1.39,0,0,0,714,357Zm0,2.46a1,1,0,1,1,1-1A1,1,0,0,1,714,359.42Z" transform="translate(-620.33 -321.96)"/><path d="M714.26,358.5a.36.36,0,0,0,.36-.41c0-.37-.23-.47-.62-.47h-.56v1.55h.37v-.66h.07l.33.66h.43Zm-.23-.25h-.22v-.36H714c.11,0,.24,0,.24.16S714.15,358.25,714,358.25Z" transform="translate(-620.33 -321.96)"/><path d="M709.8,361.8l1.72-4.75H692l-6.72,8.56,3.1-8.56h-6.49l-10.09,28.54h6.41l4.31-11.94.29,11.94,19.67,0,1.87-5.5h-7.48l2.46-6.92h6.16l1.9-5.32H701.2l2.11-6Zm-20.66,21.89-.41-14.88,9.69-11.2Z" transform="translate(-620.33 -321.96)"/></svg>