<svg id="katman_1" data-name="katman 1" xmlns="http://www.w3.org/2000/svg" viewBox="0 0 125 125"><defs><style>.cls-1{fill:#fff;}.cls-2{fill:#0e0e0e;}</style></defs><rect class="cls-1" width="125" height="125"/><path class="cls-2" d="M683.17,389.35a7.57,7.57,0,0,1,.26-1.77,2.8,2.8,0,0,1,1.25-1.8,2.59,2.59,0,0,1,.42-.09,1.91,1.91,0,0,1,0-.41,5.42,5.42,0,0,1,0-.57,8.17,8.17,0,0,1,0-.86c0-.35,0-.72,0-1.07a2.4,2.4,0,0,1,0-.28,4.41,4.41,0,0,0-2.35.69,5,5,0,0,0-2.17,3.11c-1.59-1.84-3.16-3.71-4.75-5.55a2,2,0,0,1-.42-1.51,1.93,1.93,0,0,1,.94-1.39,1.74,1.74,0,0,1,1.1-.17,1.81,1.81,0,0,1,1.31,1.1c.88-.49,1.79-.95,2.67-1.45a6,6,0,0,0-.51-.89,4.62,4.62,0,0,0-3.79-2,4.68,4.68,0,0,0-4.15,2.63,5.32,5.32,0,0,0-.51,3.24,5.12,5.12,0,0,0,1.3,2.74,5.84,5.84,0,0,0-2,2.06,6.27,6.27,0,0,0-.79,3.23,6.64,6.64,0,0,0,.89,3.16,5.94,5.94,0,0,0,3.78,2.81,6.2,6.2,0,0,0,2.39,0,6.56,6.56,0,0,0,3.56-2.05c.4.49.81,1,1.22,1.45h4Zm-5.57,1.84a2.86,2.86,0,0,1-2.22-.39,3.14,3.14,0,0,1-1.36-2.32,3.75,3.75,0,0,1,0-.58,2.69,2.69,0,0,1,1.88-2.33l3.71,4.35A3.49,3.49,0,0,1,677.6,391.19Z" transform="translate(-620.33 -321.96)"/><path class="cls-2" d="M633.45,380.25a7,7,0,0,0-2.38-4,6.54,6.54,0,0,0-4.05-1.39h-4.19v18.87H626V389a15.52,15.52,0,0,0,2.26-.07,5.84,5.84,0,0,0,3.28-1.7,7.53,7.53,0,0,0,2.08-4.65A8.41,8.41,0,0,0,633.45,380.25Zm-3.94,4.56a3.11,3.11,0,0,1-2,1c-.52,0-1,0-1.57,0v-7.76a7.67,7.67,0,0,1,1.85.11,3.32,3.32,0,0,1,1.88,1.22A4.46,4.46,0,0,1,629.51,384.81Z" transform="translate(-620.33 -321.96)"/><path class="cls-2" d="M646,374.88h3.17c0,.1,0,.21,0,.31v2.46c0,.45,0,.91,0,1.36,0,.63,0,1.26,0,1.88v3.42q0,.31,0,.63v.46c0,.66,0,1.32,0,2a8.46,8.46,0,0,1-.91,3.28,6.45,6.45,0,0,1-2.32,2.48,6.82,6.82,0,0,1-3.56.95,6.75,6.75,0,0,1-3.93-1.13,6.61,6.61,0,0,1-2.47-3.23,9.55,9.55,0,0,1-.54-3.36V374.88h3.2V386.6a5.1,5.1,0,0,0,.94,3.1,3.21,3.21,0,0,0,2.27,1.17,3.94,3.94,0,0,0,2.61-.56,3.42,3.42,0,0,0,1.27-1.83,7.59,7.59,0,0,0,.28-1.65c0-1.37,0-2.74,0-4.11v-7.84Z" transform="translate(-620.33 -321.96)"/><path class="cls-2" d="M661.22,374.88h3.18v15.61h5.43v3.24h-8.61V374.88Z" transform="translate(-620.33 -321.96)"/><path class="cls-2" d="M699.06,385.76a4.7,4.7,0,0,0-2.1-2.19v-.05a4.52,4.52,0,0,0,1.31-2.34,5.84,5.84,0,0,0,0-2,5.28,5.28,0,0,0-.69-1.82,5.07,5.07,0,0,0-2-1.85,6.17,6.17,0,0,0-2.06-.55c-.42,0-.85-.07-1.27-.08h-4.09v18.87c2,0,4,0,6,0a6.07,6.07,0,0,0,3.86-1.79,5.28,5.28,0,0,0,1.47-3.09A6.16,6.16,0,0,0,699.06,385.76Zm-7.73-7.8a11.62,11.62,0,0,1,2.12.09,2.21,2.21,0,0,1,1.35.73,2.36,2.36,0,0,1,.42,1.49,2.21,2.21,0,0,1-.6,1.62,2.59,2.59,0,0,1-1.63.63h-1.66Zm4.93,10.75a1.87,1.87,0,0,1-.64,1.14,3,3,0,0,1-1.4.62,20,20,0,0,1-2.89.1c0-1.64,0-3.27,0-4.91.72,0,1.43,0,2.15,0a3.81,3.81,0,0,1,2,.59,1.89,1.89,0,0,1,.77,1.3A3.7,3.7,0,0,1,696.26,388.71Z" transform="translate(-620.33 -321.96)"/><path class="cls-2" d="M701.22,374.88h10.84v3.18h-7.67v4.45h7.28v3.13h-7.28v4.9c2.55,0,5.11,0,7.67,0v3.18H701.22V374.88Z" transform="translate(-620.33 -321.96)"/><path class="cls-2" d="M722.61,374.92c0-.1-.12-.07-.19-.08h-2.14c-.07,0-.17,0-.2.06q-3.6,9.42-7.19,18.84h3.41q.9-2.46,1.78-4.91h6.53c.59,1.64,1.18,3.27,1.78,4.91H730Q726.33,384.34,722.61,374.92Zm-3.37,10.73c.7-1.9,1.41-3.79,2.11-5.69.71,1.89,1.4,3.79,2.11,5.69Z" transform="translate(-620.33 -321.96)"/><path class="cls-2" d="M741.16,390.66c-.74-1.5-1.46-3-2.1-4.57a6.25,6.25,0,0,0,1.38-1.14,5.43,5.43,0,0,0,1.12-2,6.85,6.85,0,0,0-.37-5.11,5,5,0,0,0-1.53-1.73,7.17,7.17,0,0,0-3.17-1.16c-.39,0-.78-.08-1.17-.08h-4.55v18.86H734v-6.33h.3c.26,0,.53,0,.79-.06s.53-.08.8-.09c.12.31.26.61.39.92q1.23,2.83,2.66,5.57h3.94C742.24,392.74,741.68,391.71,741.16,390.66Zm-2.65-8.74a2.53,2.53,0,0,1-1.06,1.48,4.6,4.6,0,0,1-2.51.6h-1v-5.94a10.19,10.19,0,0,1,2.7.2,3.4,3.4,0,0,1,1.08.53,2.3,2.3,0,0,1,.82,1.3A3.9,3.9,0,0,1,738.51,381.92Z" transform="translate(-620.33 -321.96)"/><path class="cls-2" d="M651.33,374.88h3.17v15.61h5.43v3.26h-8.6V374.88Z" transform="translate(-620.33 -321.96)"/></svg>