<svg id="katman_1" data-name="katman 1" xmlns="http://www.w3.org/2000/svg" viewBox="0 0 125 125"><defs><style>.cls-1{fill:#fff;}.cls-2{fill:#d5312c;}</style></defs><rect class="cls-1" width="125" height="125"/><g id="g10"><g id="g3148"><path id="path100" class="cls-2" d="M687.14,357.15c-.36.05-.71,1.38-1.41,2.08-.51.5-1.15.47-1.48,1.09-.13.23-.09.62-.24,1-.28.76-1.29.83-1.29,1.66s.84,1.06,1.57,1.69c.57.51.62.86,1.31,1.11s1.47-.45,2.25-.22,1.27.33,1.42,1,0,1.56-.8,1.45a8.5,8.5,0,0,0-2.82-.27c-1.7.2-3.64.75-3.83,2.65a2.17,2.17,0,0,0,2.47,2.05c.88-.17.46-1.2.94-1.7s4.17,2.24,7.45,2.24a4.3,4.3,0,0,0,3.44-1.42c.1-.09.22-.26.36-.27a1.27,1.27,0,0,1,.47.21c2.64,2.13,4.65,6.4,14.39,6.45a6.51,6.51,0,0,1,4.2,1.82,11.59,11.59,0,0,1,2.45,4.34,23.15,23.15,0,0,0,5.37,7.61c.14.14,2.32,1.83,2.5,2a1.19,1.19,0,0,1,.13.62c-.07,1.61-.3,6.31,3.2,6.52.85,0,.63-.56.63-1a4.92,4.92,0,0,1,.28-2.47c.59-1.15-1.25-1.68-1.2-4.17,0-1.86-1.52-1.54-2.31-3a3.77,3.77,0,0,1-.83-2.25c.18-5.64-1.2-9.35-1.89-10.26-.54-.69-1-1-.49-1.28,2.92-1.93,3.59-3.72,3.59-3.72,1.55-3.66,2.95-7,4.87-8.46a14.75,14.75,0,0,1,2-1.34,12.94,12.94,0,0,0,3.26-1.87c.83-.8,1.48-2.48.69-3.5-1-1.26-2.69-.26-3.44.19-5.37,3.18-6.16,8.81-8,12-1.49,2.58-3.9,4.47-6.06,4.63a10.77,10.77,0,0,1-5.09-1,25.23,25.23,0,0,1-7.08-4.67c-1.14-.87-9.94-9.52-17.08-9.87,0,0-.89-1.78-1.11-1.8-.52-.07-1,1.05-1.44,1.19s-1-1.22-1.33-1.16" transform="translate(-620.33 -321.96)"/><path id="path102" class="cls-2" d="M655.73,408.75a1.28,1.28,0,0,1-1.24-1.25V385.24h-7.34v24.53a2.19,2.19,0,0,0,2.17,2.19h12.83a2.17,2.17,0,0,0,2.16-2.19V385.24H657V407.5a1.28,1.28,0,0,1-1.25,1.25" transform="translate(-620.33 -321.96)"/><path id="path104" class="cls-2" d="M680.29,385.24h-11.1a2.39,2.39,0,0,0-2.39,2.4V412h7.35V389.65a1.25,1.25,0,0,1,2.49,0V412H684V389.63a1.23,1.23,0,0,1,1.24-1.21,1.25,1.25,0,0,1,1.25,1.23V412h7.34V387.64a2.39,2.39,0,0,0-2.38-2.4H680.29" transform="translate(-620.33 -321.96)"/><path id="path106" class="cls-2" d="M642.26,405.24h-7.41V412h-7.33V385.24h14.79a2.37,2.37,0,0,1,2.36,2.41v15.19A2.4,2.4,0,0,1,642.26,405.24Zm-4.92-15.55a1.26,1.26,0,0,0-1.24-1.27h-1.25v13.52h1.25a1.25,1.25,0,0,0,1.24-1.26v-11" transform="translate(-620.33 -321.96)"/><path id="path112" class="cls-2" d="M706.09,412v-6.71H703.6V412h-7.33V387.64a2.39,2.39,0,0,1,2.39-2.4H711a2.39,2.39,0,0,1,2.38,2.4V412Zm0-10v-12.3a1.25,1.25,0,0,0-2.49,0v12.28h2.49" transform="translate(-620.33 -321.96)"/></g></g></svg>