<svg id="katman_1" data-name="katman 1" xmlns="http://www.w3.org/2000/svg" viewBox="0 0 125 125"><defs><style>.cls-1{fill:#fff;}.cls-2{fill:#ff3c00;}</style></defs><rect class="cls-1" width="125" height="125"/><path class="cls-2" d="M732.44,387.43l0-1.14c0-1.15-.27-1.77-1.18-2.09a2.15,2.15,0,0,0,1.41-2.26c0-1.87-1-2.73-3-2.73H725v9.6h1.95v-3.73H729c1.09,0,1.38.38,1.41,1.52l0,1a2.85,2.85,0,0,0,.22,1.2h2.13v-.29c-.32-.18-.32-.53-.32-1.09m-3.22-4h-2.3v-2.53h2.39c.9,0,1.35.43,1.35,1.27s-.45,1.26-1.44,1.26" transform="translate(-620.33 -321.96)"/><path class="cls-2" d="M728.59,375.5a8.57,8.57,0,1,0,8.47,8.57,8.53,8.53,0,0,0-8.47-8.57m0,15.15a6.56,6.56,0,1,1,6.5-6.56,6.55,6.55,0,0,1-6.5,6.56" transform="translate(-620.33 -321.96)"/><path d="M628.6,386.55c.18,3.63,2.66,5.74,7,5.74s6.8-2.09,6.8-5.6a4.05,4.05,0,0,0-2.06-3.81,16.64,16.64,0,0,0-4-1.34c-2.8-.71-4.08-.71-4.08-2.33,0-1.3,1-2.06,2.83-2.06,2.1,0,3.26.88,3.37,2.55h3.34c-.13-3.42-2.42-5.43-6.4-5.43-4.25,0-6.51,1.86-6.51,5.15a4.31,4.31,0,0,0,1.83,3.87,11.25,11.25,0,0,0,3.74,1.27c3.11.7,4.52,1,4.52,2.58s-1,2.17-3.05,2.17c-2.34,0-3.6-.85-3.85-2.75H628.6Z" transform="translate(-620.33 -321.96)"/><path d="M654.16,379.21h-3.34v7.44a2.43,2.43,0,0,1-2.57,2.66c-1.43,0-1.93-.78-1.93-2.49v-7.63H643v8.6c0,2.9,1.36,4.34,4.13,4.34a4.54,4.54,0,0,0,3.77-1.82v1.5h3.28v-12.6Z" transform="translate(-620.33 -321.96)"/><path d="M655,396.87h3.23v-6.62a4.16,4.16,0,0,0,3.69,2c2.91,0,5.13-2.64,5.13-6.8s-2.13-6.67-5.17-6.67a4.1,4.1,0,0,0-3.7,2.14v-1.72H655Zm8.75-11.28c0,2.35-1.05,3.72-2.72,3.72s-2.8-1.34-2.8-3.72c0-2.59,1-3.92,2.73-3.92s2.79,1.35,2.79,3.92" transform="translate(-620.33 -321.96)"/><path d="M671.12,384.2c.14-1.72,1-2.61,2.44-2.61s2.42.91,2.48,2.61ZM676,388a2.19,2.19,0,0,1-2.28,1.39c-1.62,0-2.49-1-2.58-3h8.35c0-.31,0-.59,0-.88,0-4.34-2.19-6.76-6-6.76-3.6,0-5.84,2.54-5.84,6.67s2.33,6.81,5.87,6.81a5.59,5.59,0,0,0,5.79-4.25Z" transform="translate(-620.33 -321.96)"/><path d="M680.34,391.81h3.34v-6.67c0-1.9.94-2.86,2.75-2.86h1.1v-3.42h-.48c-1.6,0-2.73.77-3.6,2.51v-2.17h-3.11v12.62Z" transform="translate(-620.33 -321.96)"/><path d="M690.68,385.43c0-2.35,1.07-3.73,2.71-3.73s2.8,1.34,2.8,3.73c0,2.58-1,3.92-2.73,3.92s-2.78-1.36-2.78-3.92m8.73-10.69h-3.24v6a4.2,4.2,0,0,0-3.72-2c-2.91,0-5.13,2.64-5.13,6.8s2.13,6.67,5.17,6.67a4.19,4.19,0,0,0,3.74-2.13v1.71h3.18Z" transform="translate(-620.33 -321.96)"/><path d="M700.11,391.81h3.35v-6.67c0-1.9.94-2.86,2.75-2.86h1.1v-3.42h-.49c-1.59,0-2.73.77-3.6,2.51v-2.17h-3.11Z" transform="translate(-620.33 -321.96)"/><path d="M709.39,396.87a12,12,0,0,0,1.41.09c2.4,0,3.29-.76,4-2.89l5.13-14.86h-3.5l-2.57,9.09-2.64-9.09h-3.67L712.05,392a1.08,1.08,0,0,1,.07.36c0,1.27-.65,1.88-2,1.88a4.83,4.83,0,0,1-.78-.05v2.73Z" transform="translate(-620.33 -321.96)"/><path d="M647.06,376.78a4.88,4.88,0,0,0,.58-.68,5.16,5.16,0,0,0,.65.7l.31-.54a5.21,5.21,0,0,1-.65-.7,6.58,6.58,0,0,0,.48-1.74l-.25-.34h-1a.59.59,0,0,1-.2,0v.63a.89.89,0,0,1,.22,0h.61a7.87,7.87,0,0,1-.18.91,5.36,5.36,0,0,1-.27-.83l-.43.28a6.55,6.55,0,0,0,.41,1.14,4.59,4.59,0,0,1-.6.73Z" transform="translate(-620.33 -321.96)"/><path d="M646.3,376.84a5.2,5.2,0,0,1-.81,0l-.15-.62a3.61,3.61,0,0,0,.62,0c.2,0,.21-.49.21-.49a12.18,12.18,0,0,0,.08-1.94h-.33v2.25h-1.28s0-.29,0-.29v-1.05l-.22.5a4.19,4.19,0,0,1-.31-.66v2.89a2.26,2.26,0,0,0,0,.31h-.65a1.68,1.68,0,0,0,0-.31V375a4.69,4.69,0,0,1-.54,1.28l-.32-.61a5.32,5.32,0,0,0,.79-1.95h-.36a1.75,1.75,0,0,1-.25,0v-.68l.21,0h.44v-.87a1.26,1.26,0,0,0,0-.22h.71a2.07,2.07,0,0,0-.06.24v.86h.38v.63l-.16,0h-.2a3.79,3.79,0,0,0,.51.94v-.78c0-.05,0-.21,0-.21h.76l.4-.85h-.91c-.21,0-.4,0-.4,0v-.61a2.23,2.23,0,0,0,.33,0h3.65v.65a1.78,1.78,0,0,0-.31,0h-1.68l-.21.45h.36l.25,0s-.07,2.21-.14,2.64c0,0-.06.78-.42.87m-.87-2.59h-.3v1.32h.3Z" transform="translate(-620.33 -321.96)"/><path d="M644.38,377.65V377a2.26,2.26,0,0,0,.28,0h3.57l.31,0v.67a1.44,1.44,0,0,0-.29,0h-3.59a.74.74,0,0,0-.28,0" transform="translate(-620.33 -321.96)"/><path d="M653.86,375.09a1.43,1.43,0,0,0-.26,0h-2l-.29,0a2.73,2.73,0,0,0,0-.35v-.65h-.88a7,7,0,0,1-.71,3.71l-.5-.6c.67-.94.54-4.37.54-4.37s0-.37,0-.37a1.64,1.64,0,0,0,.42,0H652v-.25c0-.06,0-.24,0-.24h.74a1.13,1.13,0,0,0,0,.22v.25h2l.29,0v.64h-1.12v.41h.9l.24,0v.62h-1.16v.76c0,.05,0,.22,0,.22m-2.52-2h-.88v.43h.88Zm1.87,0H652v.43h1.22Zm0,1H652v.44h1.22Z" transform="translate(-620.33 -321.96)"/><path d="M651,375.45h2.8a1.49,1.49,0,0,0,.22,0l.33.36c0,.06-.37.42-.44.51s-.7.56-.7.56a6.81,6.81,0,0,0,1.84.31l-.25.68a5.83,5.83,0,0,1-2.23-.61,7.54,7.54,0,0,1-2.09.61l-.26-.65a4.88,4.88,0,0,0,1.76-.34,3.35,3.35,0,0,1-.83-.89l-.46,0v-.6a2.73,2.73,0,0,0,.31.06m1.61,1.14a4.85,4.85,0,0,0,.78-.6h-1.5a3.56,3.56,0,0,0,.72.6" transform="translate(-620.33 -321.96)"/><path d="M657.51,372.27v.39h1.06v.63a1.24,1.24,0,0,0-.23,0h-.81v.4h.86v.16a4.07,4.07,0,0,0,.78-1.75l.69.11a6,6,0,0,1-.2.67h1.5a2.37,2.37,0,0,0,.34,0v.69a2.14,2.14,0,0,0-.32,0h-1.77c0,.09-.38.6-.38.6h1.57a1,1,0,0,0,.31,0l.38.47a11.64,11.64,0,0,0-1.72,1.92c-.07.14-.27.43-.07.58a2.46,2.46,0,0,0,1,0,.38.38,0,0,0,.36-.29,2.57,2.57,0,0,0,0-.7l.66.25c-.08,1.12-.42,1.23-.42,1.23a2.58,2.58,0,0,1-1.14.16,2.39,2.39,0,0,1-1-.13c-.6-.3-.11-1.23.09-1.55a15,15,0,0,1,1.19-1.34h-1.14a1.85,1.85,0,0,0-.25,0v-.47l-.16.18-.31-.31v1.59a1.34,1.34,0,0,0,0,.2h-.85v.42h.65l.31,0v.63a1.39,1.39,0,0,0-.27,0h-.73v.66a1.29,1.29,0,0,0,0,.28h-.69a2.4,2.4,0,0,0,0-.29v-.65h-1.07v-.65s.29,0,.29,0h.78v-.44H656a1.7,1.7,0,0,0,0-.21v-1.79c0-.06,0-.25,0-.25h.88v-.41h-.83l-.25,0v-.6s.27,0,.27,0h.79v-.38c0-.09,0-.2,0-.2h.68a.84.84,0,0,0,0,.2m.27,1.89h-1.16v.35h1.16Zm0,.85h-1.16v.35h1.16Z" transform="translate(-620.33 -321.96)"/><path d="M662.42,373.35l.51.07a6.75,6.75,0,0,1-.18,1.85l-.52-.26a6.51,6.51,0,0,0,.19-1.66" transform="translate(-620.33 -321.96)"/><path d="M664.63,372.27H667a1,1,0,0,0,.23,0v1.44H664.9l-.25,0v-1.14a1.91,1.91,0,0,0,0-.3m2,.5h-1.36v.42h1.36Z" transform="translate(-620.33 -321.96)"/><path d="M663.08,372.16h.68a2.31,2.31,0,0,0,0,.29v1.21a3.09,3.09,0,0,0,.36-.54l.36.43-.27.32.27,0h1.08a1.3,1.3,0,0,0,.28,0v1.27h.27v-1.27h1.75V375a.87.87,0,0,0,0,.2h-1.56v.33h1.27a2.49,2.49,0,0,0,.36,0v.6h-1.34a3.15,3.15,0,0,0,1.5.94l-.34.63a4.75,4.75,0,0,1-1.48-1.21v1.23a.47.47,0,0,0,0,.18h-.72a.8.8,0,0,0,0-.24v-1.17a3.62,3.62,0,0,1-1.51,1.23l-.33-.51a3.73,3.73,0,0,0,1.52-1.08h-1l-.16,0,.22.16-.31.6a3,3,0,0,1-.58-.72,3.75,3.75,0,0,1-.79,1.57l-.47-.52a3.26,3.26,0,0,0,.85-2.21s.09-2.19.05-2.57c0,0,0-.28,0-.3m.61,2.2c0,.09-.07,1.12-.07,1.12a4.32,4.32,0,0,0,.45.64v-.6l.34,0h1.18v-.31h-1.23l-.24,0a1.08,1.08,0,0,0,0-.22v-.88a1.41,1.41,0,0,0,0-.22,5.88,5.88,0,0,1-.42.43m1.57,0h-.58v.42h.58Zm2,0h-.67v.42h.67Z" transform="translate(-620.33 -321.96)"/><path d="M672.48,372.28h-.89v.27s-.05,3.13-.05,3.26a1.82,1.82,0,0,0,.9,1.7,2.57,2.57,0,0,0,3.34-1.86s.15-.42.17-.46l-.78-.5a3.42,3.42,0,0,1-.71,1.73,1.47,1.47,0,0,1-1.91.18,3.66,3.66,0,0,1-.2-1.82c0-.71.07-2.1.07-2.17s.06-.33.06-.33" transform="translate(-620.33 -321.96)"/><path d="M676.58,373.15v.74h1a10.69,10.69,0,0,1-1.19,2.53l.72.46a22.78,22.78,0,0,0,1.25-3,9.66,9.66,0,0,0,1.21-.16l0-.74a3.67,3.67,0,0,1-1,.18l.24-1-.84-.11s0,.2,0,.25l-.17.89-.83,0a1.14,1.14,0,0,1-.34,0" transform="translate(-620.33 -321.96)"/><path d="M679.85,373.51l.38-.61a9.87,9.87,0,0,1,1.79.87l-.34.65a7.64,7.64,0,0,0-1.83-.91" transform="translate(-620.33 -321.96)"/><path d="M680,374.25h.74a1.63,1.63,0,0,0-.07.31,11.23,11.23,0,0,0,0,1.25,4.63,4.63,0,0,1,1.32.87l-.36.72a4.27,4.27,0,0,0-1-.81,1,1,0,0,1-.61,1.06,1.8,1.8,0,0,1-1.84-.3,1.07,1.07,0,0,1,.28-1.56,1.88,1.88,0,0,1,1.43-.14,6.22,6.22,0,0,1,0-1.4m-1.19,2.21c-.24.43.14.65.74.58s.39-.74.39-.74c-.23-.06-.88-.27-1.13.16" transform="translate(-620.33 -321.96)"/><path d="M682.83,373.33a9.92,9.92,0,0,0,2.34-.09s-.38-.9-.38-1l.79-.11a9.34,9.34,0,0,0,.36,1,15.29,15.29,0,0,0,1.54-.38l.09.78s-1.18.25-1.39.27a12.25,12.25,0,0,0,1.12,1.84l-.72.35s-.38-.47-1.6-.42c0,0-1.26,0-1.22.78s2.33.7,3.23.14l.09.83a6.19,6.19,0,0,1-2.76.29s-1.63-.18-1.34-1.62c0,0,.45-1.63,3.14-.91a13.38,13.38,0,0,1-.68-1.17s-1.81.2-2.3.16l-.25,0-.06-.8" transform="translate(-620.33 -321.96)"/><path d="M688.51,372.7h.83s0,.23,0,.34a9.87,9.87,0,0,0,.27,3s.46,1.44,1-1l.62.6s-.4,1.75-1.2,1.75-1.5-1-1.46-4.68" transform="translate(-620.33 -321.96)"/><path d="M691,373.3l.66-.35a7.19,7.19,0,0,1,1.32,3.47l-.66.29A6.2,6.2,0,0,0,691,373.3" transform="translate(-620.33 -321.96)"/><path d="M670.79,372h-.63a5,5,0,0,0-1.08,2.91,5.1,5.1,0,0,0,1.08,2.91h.63a5.52,5.52,0,0,1,0-5.82" transform="translate(-620.33 -321.96)"/><path d="M693.43,372a5.52,5.52,0,0,1,0,5.82h.65a5,5,0,0,0,1.06-2.91,5.14,5.14,0,0,0-1.06-2.91Z" transform="translate(-620.33 -321.96)"/></svg>