<svg xmlns="http://www.w3.org/2000/svg" width="120.538" height="109.125" viewBox="0 0 120.538 109.125">
  <g id="Group_3928" data-name="Group 3928" transform="translate(-138.277 -0.001)">
    <g id="arrow_03" transform="matrix(0.788, 0.616, -0.616, 0.788, 201.475, 42.926)">
      <path id="Path_837" data-name="Path 837" d="M0,22.139c5.927,5.813,15.87,6.214,23,2.292,2.942-1.618,6.6-4.972,5.389-8.812-.538-1.707-3.04-4.608-4.909-2.486-2.35,2.671,2.47,7.469,4.107,8.809A21.28,21.28,0,0,0,44.36,26.219C57.7,23.973,64.037,11.035,69.05,0" transform="translate(1.948 0)" fill="none" stroke="#fa7767" stroke-linecap="round" stroke-miterlimit="10" stroke-width="1.5"/>
      <path id="Path_838" data-name="Path 838" d="M.982,7.851C1.627,5.038-.074,2.759,0,0c1.9.918,5.823,2.607,8.02,2.306" transform="translate(0 19.465)" fill="none" stroke="#fa7767" stroke-linecap="round" stroke-linejoin="round" stroke-miterlimit="10" stroke-width="1.5"/>
    </g>
    <g id="trendyol-seeklogo.com" transform="translate(138.277 -0.313)">
      <path id="Path_4593" data-name="Path 4593" d="M32.182,80.162H21.993a4.17,4.17,0,0,0,4.037,3.281,4.081,4.081,0,0,0,3-1.3l2.465.052a6.242,6.242,0,0,1-5.557,3.3,6.35,6.35,0,0,1-6.258-6.334,6.29,6.29,0,0,1,12.58-.125c-.011.363-.032.758-.074,1.121Zm-6.226-5.254a3.958,3.958,0,0,0-3.974,3.52h7.947A3.959,3.959,0,0,0,25.956,74.908ZM42.392,85.2V78.667c0-2.035-.627-3.759-3.07-3.759-2.263,0-3.24,1.713-3.24,3.738V85.2H33.775V73.174h2.157v1.277h.042a4.325,4.325,0,0,1,3.6-1.609,5.009,5.009,0,0,1,4.356,2.149,5.6,5.6,0,0,1,.776,3.084V85.2H42.392Zm14.587,0V83.485h-.042A5.236,5.236,0,0,1,52.58,85.5a6.329,6.329,0,1,1,0-12.657,5.381,5.381,0,0,1,4.176,1.8H56.8v-5.5H59.1V85.2Zm-4.271-10.29a4.2,4.2,0,0,0-4.218,4.3,4.239,4.239,0,0,0,8.478,0A4.151,4.151,0,0,0,52.708,74.908ZM65.787,89.217H63.4l1.8-4.257L60.283,73.174h2.486l3.623,9.335L70.1,73.174h2.486l-6.8,16.042ZM79.163,85.5a6.54,6.54,0,0,1-6.64-6.407,6.645,6.645,0,1,1,6.64,6.407Zm0-10.591A4.268,4.268,0,1,0,83.5,79.145,4.295,4.295,0,0,0,79.163,74.908ZM87.684,85.2V69.135H90V85.2Zm-85.4-2.367a3.268,3.268,0,0,0,.372.935,2.941,2.941,0,0,0,.563.644,4.121,4.121,0,0,0,2.752.945A6.317,6.317,0,0,0,9,84.6v-2.16a5.515,5.515,0,0,1-2.73.831c-1.169,0-1.774-.7-1.774-2.077V75.3H8.372V73.216H4.5V69.353H2.221v3.852H0v2.087H2.125v5.337A9.861,9.861,0,0,0,2.284,82.831Zm13.971-7.642a3.639,3.639,0,0,1,2.337,1.153l1.254-2.035a5,5,0,0,0-2.975-1.329h-.159a3.462,3.462,0,0,0-3.336,1.786l-.043.073.011-1.62h-2.39v11.92h2.391v-6.23a4.126,4.126,0,0,1,.861-2.606A2.553,2.553,0,0,1,16.255,75.189Z" transform="translate(0 -58.903)" fill="#231f20"/>
      <path id="Path_4594" data-name="Path 4594" d="M449.932,11.561a.209.209,0,0,1-.232-.169l-.612-3.84a3.89,3.89,0,0,1,.654-3.154,4.26,4.26,0,0,1,2.827-1.551L468.518.317a.209.209,0,0,1,.232.169l1.213,7.7a.209.209,0,0,1-.169.232Z" transform="translate(-383.655)" fill="#ff671b"/>
      <path id="Path_4595" data-name="Path 4595" d="M465.867,23.621a1.218,1.218,0,0,1-1.013.907A1.436,1.436,0,0,1,464.4,21.7a1.215,1.215,0,0,1,1.245.549l.77-.127a2.027,2.027,0,0,0-3.787,1.308,1.992,1.992,0,0,0,2.321,1.719,2.015,2.015,0,0,0,1.677-1.667l-.76.137Zm2.974-3.291a2.075,2.075,0,0,0-1.762,2.363,2.127,2.127,0,1,0,1.762-2.363Zm.559,3.449a1.438,1.438,0,1,1,1.171-1.667A1.428,1.428,0,0,1,469.4,23.779Zm8.681-.875-.38-2.342a1.5,1.5,0,0,0-1.846-1.382,1.367,1.367,0,0,0-1.171.854l-.021.042-.021-.032a1.379,1.379,0,0,0-1.308-.454,1.3,1.3,0,0,0-1.023.707l-.01.011-.042.011-.074-.422-.633.105.633,3.882.7-.116-.348-2.173c-.127-.8.127-1.245.8-1.35a.853.853,0,0,1,.812.253,1.379,1.379,0,0,1,.3.791l.359,2.162.7-.116-.359-2.162c-.095-.559-.084-1.213.76-1.35.622-.105,1.023.264,1.15,1.044l.348,2.162.685-.127Zm-15.569,2.289a.559.559,0,1,1-.559-.559A.543.543,0,0,1,462.513,25.193Z" transform="translate(-394.253 -16.121)" fill="#fff"/>
    </g>
  </g>
</svg>
