<svg xmlns="http://www.w3.org/2000/svg" width="95.002" height="34.193" viewBox="0 0 95.002 34.193">
  <g id="Component_31_1" data-name="Component 31 – 1" transform="translate(0.737)">
    <g id="arrow_03" transform="translate(41.765 20.011) rotate(160)">
      <path id="Path_837" data-name="Path 837" d="M0,12.158c3.255,3.192,8.716,3.412,12.632,1.259,1.616-.889,3.625-2.73,2.96-4.839-.3-.938-1.67-2.531-2.7-1.365-1.29,1.467,1.357,4.1,2.256,4.838A11.689,11.689,0,0,0,24.364,14.4C31.688,13.165,35.171,6.06,37.924,0" transform="translate(1.062 0)" fill="none" stroke="#fa7767" stroke-linecap="round" stroke-miterlimit="10" stroke-width="1"/>
      <path id="Path_838" data-name="Path 838" d="M.535,4.279C.887,2.746-.04,1.5,0,0,1.035.5,3.175,1.421,4.373,1.257" transform="translate(0 10.721)" fill="none" stroke="#fa7767" stroke-linecap="round" stroke-linejoin="round" stroke-miterlimit="10" stroke-width="1"/>
    </g>
    <g id="trendyol-seeklogo.com" transform="translate(49.265 -0.314)">
      <path id="Path_4593" data-name="Path 4593" d="M16.091,74.684H11a2.088,2.088,0,0,0,2.019,1.651,2.034,2.034,0,0,0,1.5-.653l1.232.026a3.118,3.118,0,0,1-2.778,1.662,3.186,3.186,0,0,1-3.129-3.187,3.145,3.145,0,1,1,6.29-.063c-.005.183-.016.381-.037.564ZM12.978,72.04a1.984,1.984,0,0,0-1.987,1.771h3.974A1.984,1.984,0,0,0,12.978,72.04ZM21.2,77.218V73.932c0-1.024-.313-1.892-1.535-1.892-1.131,0-1.62.862-1.62,1.881v3.3H16.888V71.168h1.078v.643h.021a2.157,2.157,0,0,1,1.8-.81,2.5,2.5,0,0,1,2.178,1.082,2.83,2.83,0,0,1,.388,1.552v3.584H21.2Zm7.294,0v-.862h-.021A2.611,2.611,0,0,1,26.29,77.37a3.185,3.185,0,1,1,0-6.37,2.683,2.683,0,0,1,2.088.9H28.4V69.135h1.153v8.083ZM26.354,72.04A2.109,2.109,0,0,0,24.245,74.2a2.12,2.12,0,1,0,4.239,0A2.083,2.083,0,0,0,26.354,72.04Zm6.539,7.2H31.7l.9-2.142-2.454-5.931h1.243l1.811,4.7,1.854-4.7h1.243l-3.4,8.073Zm6.688-1.871a3.28,3.28,0,0,1-3.32-3.224,3.322,3.322,0,1,1,3.32,3.224Zm0-5.33a2.148,2.148,0,1,0,2.167,2.132A2.154,2.154,0,0,0,39.582,72.04Zm4.26,5.178V69.135H45v8.083Zm-42.7-1.191a1.65,1.65,0,0,0,.186.47,1.477,1.477,0,0,0,.282.324,2.052,2.052,0,0,0,1.376.475A3.142,3.142,0,0,0,4.5,76.915V75.828a2.745,2.745,0,0,1-1.365.418c-.584,0-.887-.35-.887-1.045V72.239H4.186v-1.05H2.252V69.245H1.11v1.939H0v1.05H1.062v2.686A4.993,4.993,0,0,0,1.142,76.027Zm6.986-3.846a1.815,1.815,0,0,1,1.169.58l.627-1.024a2.489,2.489,0,0,0-1.487-.669h-.08a1.728,1.728,0,0,0-1.668.9L6.667,72l.005-.815h-1.2v6h1.2V74.052A2.085,2.085,0,0,1,7.1,72.74,1.274,1.274,0,0,1,8.128,72.181Z" transform="translate(0 -63.927)" fill="#231f20"/>
      <path id="Path_4594" data-name="Path 4594" d="M449.476,5.973a.105.105,0,0,1-.117-.085l-.308-1.932a1.958,1.958,0,0,1,.329-1.587,2.144,2.144,0,0,1,1.423-.78L458.828.315a.105.105,0,0,1,.117.085l.61,3.875a.105.105,0,0,1-.085.117Z" transform="translate(-416.413 0)" fill="#ff671b"/>
      <path id="Path_4595" data-name="Path 4595" d="M463.646,21.4a.613.613,0,0,1-.51.456.723.723,0,0,1-.228-1.423.612.612,0,0,1,.626.276l.387-.064a1.02,1.02,0,0,0-1.906.658,1,1,0,0,0,1.168.865,1.014,1.014,0,0,0,.844-.839l-.382.069Zm1.5-1.656a1.044,1.044,0,0,0-.887,1.189,1.071,1.071,0,1,0,.887-1.189Zm.281,1.736a.723.723,0,1,1,.589-.839A.719.719,0,0,1,465.424,21.479Zm4.368-.441-.191-1.178a.753.753,0,0,0-.929-.7.688.688,0,0,0-.589.43l-.011.021-.011-.016a.694.694,0,0,0-.658-.228.656.656,0,0,0-.515.356l-.005.005-.021.005-.037-.212-.319.053.319,1.953.35-.058L467,20.381c-.064-.4.064-.626.4-.679a.429.429,0,0,1,.409.127.694.694,0,0,1,.149.4l.18,1.088.35-.058-.181-1.088c-.048-.281-.042-.61.382-.679.313-.053.515.133.579.525l.175,1.088.345-.064Zm-7.835,1.152a.281.281,0,1,1-.281-.281A.273.273,0,0,1,461.958,22.191Z" transform="translate(-427.897 -17.47)" fill="#fff"/>
    </g>
  </g>
</svg>
